<svg xmlns="http://www.w3.org/2000/svg" viewBox="0 0 1000 1000"><path fill="#c6c3f0" d="M970.43 677.78c10.84 38.74-479.11 38.74-468.24 0-10.84-38.74 479.11-38.74 468.24 0"/><path fill="#ecb98e" d="m567.34 690.65 116.79-33.59-16.53-51.45-104.88 38.15z"/><path fill="#4e3b4d" d="m566.35 690.73-4.7-47.66 106.58-38.77 17.17 53.44c-2.09-.83-117.68 36.94-119.05 32.99m-2.56-46.28 4.43 44.9 114.64-32.97-15.89-49.45-103.18 37.53Z"/><path fill="#ecb98e" d="m931.14 667.65-65.22 22.85L619.16 50.93c0-4.85 3.93-8.77 8.78-8.77h303.21c4.85 0 8.78 3.93 8.78 8.77V660.6c0 4.85-2.95 4.57-8.78 7.04Z"/><path fill="#4e3b4d" d="M865.48 691.69c-.32-.13-246.97-640.37-247.18-640.83 0-5.39 4.39-9.78 9.78-9.78h303.21c5.39 0 9.78 4.38 9.78 9.77v609.67c.17 6.01-5.17 5.94-9.45 7.99l-66.13 23.17ZM620.3 50.68l246.35 638.48 64.27-22.52c1.28-.54 2.41-.95 3.41-1.31 13.76.88.03-609.68 4.74-614.48 0-4.28-3.5-7.77-7.79-7.77H628.07c-4.23 0-7.68 3.39-7.78 7.59Z"/><path fill="#fcd0a3" d="M860.05 42.09H554.81a7.76 7.76 0 0 0-7.76 7.76c2.96 3.19-5.64 641.28 2.93 640.83h17.07c.01-7.4-1.82-20.22 9.16-20.25h262.44c10.82-.02 9.26 12.9 9.16 20.25h17c1.66 0 3-1.34 3-3V49.85a7.76 7.76 0 0 0-7.76-7.76"/><path fill="#4e3b4d" d="M864.81 691.69h-18c-.32-6.78 2.45-20.23-8.16-20.25H576.21c-10.47-.04-7.95 13.51-8.16 20.25h-18.06c-2.17 0-3.94-1.77-3.94-3.94V49.85c0-4.83 3.93-8.76 8.76-8.76h305.24c4.83 0 8.76 3.93 8.76 8.76-3.92 4.02 7.55 642.68-4 641.84m-16-2h16c5.87.44-.03-637.84 2-639.85 0-3.72-3.04-6.76-6.77-6.76H554.8c-3.73 0-6.76 3.03-6.76 6.76v637.91c0 1.07.87 1.94 1.94 1.94h16.06c-.25-8.11-1.17-20.04 10.16-20.25h262.44c11.17.15 10.51 12.19 10.16 20.25Z"/><rect width="281.14" height="591.62" x="566.32" y="63.41" fill="#dba67f" rx="7.58" ry="7.58"/><path fill="#4e3b4d" d="M839.88 656.03H573.9c-4.73 0-8.58-3.85-8.58-8.58V71c0-4.73 3.85-8.58 8.58-8.58h265.98c4.73 0 8.58 3.85 8.58 8.58v576.45c0 4.73-3.85 8.58-8.58 8.58M573.9 64.41c-3.63 0-6.58 2.95-6.58 6.58v576.45c0 3.63 2.95 6.58 6.58 6.58h265.98c3.63 0 6.58-2.95 6.58-6.58V71c0-3.63-2.95-6.58-6.58-6.58H573.9Z"/><path fill="#fcd0a3" d="M566.32 201.72h281.14v16.29H566.32z"/><path fill="#4e3b4d" d="M848.46 219.01H565.32v-18.29h283.14zm-281.14-2h279.14v-14.29H567.32z"/><path fill="#fcd0a3" d="M566.32 353.72h281.14v16.29H566.32z"/><path fill="#4e3b4d" d="M848.46 371.01H565.32v-18.29h283.14zm-281.14-2h279.14v-14.29H567.32z"/><path fill="#fcd0a3" d="M566.32 509.72h281.14v16.29H566.32z"/><path fill="#4e3b4d" d="M848.46 527.01H565.32v-18.29h283.14zm-281.14-2h279.14v-14.29H567.32z"/><path fill="#e9b891" d="m566.32 201.75 63.37-24.15V63.39h-55.78s-7.85 0-7.85 9.13c0 4.05.27 129.23.27 129.23Z"/><path fill="#4e3b4d" d="M565.32 203.18c-.03-2.55-.25-125.26-.27-130.66 0-9.99 8.76-10.11 8.85-10.11h56.78v115.86l-65.36 24.92Zm8.58-138.81c-.28 0-6.85.15-6.85 8.15 0 3.77.23 113.89.26 127.8l61.37-23.39V64.38H573.9Z"/><path fill="#e9b891" d="m566.59 354.72 63.1-23.87V218h-63.37c0 4 .27 136.71.27 136.71Z"/><path fill="#4e3b4d" d="M565.59 356.17c0-3.59-.27-132.95-.27-139.16h65.37v114.54zm1.73-137.16c.02 12.06.24 120.42.26 134.27l61.1-23.11V219.01z"/><path fill="#e9b891" d="m566.59 509.94 63.1-24.43V370h-63.37c0 4.1.27 139.94.27 139.94"/><path fill="#4e3b4d" d="M565.59 511.4c0-3.63-.27-136.08-.27-142.39h65.37V486.2zm1.73-140.39c.02 12.24.24 123.39.26 137.48l61.1-23.66V371.01z"/><path fill="#e9b891" d="m568.17 647.43 61.52-20.38V526.01h-63.37c1.59 3.71-3.03 108.93 1.85 121.42"/><path fill="#4e3b4d" d="M567.75 648.5c-6.32-13.15-.43-118.12-2.43-123.49h65.37v102.76c-1.03.22-61.9 20.74-62.94 20.73m-.43-121.49c.37 11.42-.63 105.88.52 119.47 0 .01 60.84-20.17 60.85-20.16v-99.31z"/><path fill="#faf3e9" d="M627.87 230.94c-.16-.04-32.45 8.24-39.56 10.09-.57.15-.7.83-.23 1.15l11.1 7.16 14.54-7.84 33.03-8.49c.39-.1.32-.62-.08-.63-4.73-.09-15.12-.39-18.81-1.44Z"/><path fill="#4e3b4d" d="m599.14 250.49-11.6-7.48c-1.21-.76-.86-2.65.52-2.96 26.19-6.81 39.64-10.21 40.09-10.09 3.61 1.03 14.17 1.33 18.55 1.41 1.52-.02 1.81 2.25.31 2.6l-32.91 8.46zm-9.8-8.69 9.9 6.38 14.25-7.65 28.31-7.27c-15.81-3.02-33.09 3.86-52.45 8.54Z"/><path fill="#fde888" d="M587.27 346.15V241.71c0-.51.53-.83 1.04-.68 3 .89 12.41 2.97 27.55-.14 2.79-.69.04 103.79.98 104.5-1.35 1.99-15.6 6.69-29.57.77Z"/><path fill="#4e3b4d" d="M601.53 349.91c-2.98-.41-13.25.18-15.26-3.76V241.71c-.01-1.15 1.22-1.99 2.33-1.64 3.23.96 12.34 2.87 27.06-.16 1.05-.24 2.2.58 2.17 1.67v103.8c-1.35 3.19-7.04 3.88-16.3 4.53m-13.26-3.98c14.79 4.38 25.24.31 27.56-.75V241.91c-14.68 2.98-24.01 1.16-27.56.15z"/><path fill="#e4b95c" d="M601.09 251.55c-6.5 0-10.7-.88-10.96-.94l.84-3.91-.42 1.96.42-1.96c.09.02 9.08 1.89 21.03-.02l.63 3.95c-4.31.69-8.23.92-11.55.92ZM601.1 258.03c-6.54 0-10.77-.89-11.03-.94l.99-3.77-.49 1.88.49-1.88c.09.02 9.03 1.87 20.9-.02l.74 3.81c-4.32.69-8.26.92-11.6.92M601.09 336.14c-6.5 0-10.7-.88-10.96-.94l.84-3.91-.42 1.96.42-1.96c.09.02 9.08 1.89 21.03-.02l.63 3.95c-4.31.69-8.23.92-11.55.92ZM601.1 342.62c-6.54 0-10.77-.89-11.03-.94l.99-3.77-.49 1.88.49-1.88c.09.02 9.03 1.87 20.9-.02l.74 3.81c-4.32.69-8.26.92-11.6.92M602.05 302.64c-2.78-3.55-12.41-7.24-11.2-14.74 1.04-5.62 9.83-4.89 11.2-.05 1.38-4.85 10.17-5.57 11.2.05 1.21 7.5-8.42 11.19-11.2 14.74"/><path fill="#e291ab" d="m746.65 398.78-31.76 95.5-23.24 3.57-7-2.27 37.37-98.19c.15.32 25.04.49 24.64 1.4Z"/><path fill="#4e3b4d" d="m691.56 498.88-8.23-2.67 38-99.85 25.22 1.1c.37.02.69.2.9.5 1.16 1.07-31.94 96.09-31.81 97.22zm-5.61-3.92 5.77 1.88 22.41-3.44 31.26-93.98-22.7-.99-36.74 96.54Z"/><path fill="#faf3e9" d="M734.38 392.62c-.09-.08-24.39.61-29.75.78-2.24-.04 4.93 9.63 4.81 10.16l12.19-4.15 24.86-.71c.29 0 .41-.51.13-.61-3.17-1.12-10.08-3.68-12.24-5.47"/><path fill="#4e3b4d" d="M708.98 404.77c-.28-1.13-7.04-10.39-5.7-11.54.28-.5.77-.81 1.31-.83 29.91-.96 30.11-.81 30.42-.55 1.43 1.19 5.89 3.17 11.94 5.3 1.31.42.91 2.56-.44 2.55l-24.7.71-12.83 4.37Zm-3.72-10.39 4.63 7.97 11.71-3.94 21.31-.61c-3.31-1.26-7.1-2.86-8.89-4.19-2.7.02-22.54.57-28.77.77Z"/><path fill="#fcb5a8" d="M671.95 491.59c.89-.46 30.8-99.21 32.68-98.2 1.75 1.49 7.47 5.5 18.62 5.9 1.99.36-31.57 97.2-31.13 98.05-1.18 1.6-13.02 2.68-20.17-5.76Z"/><path fill="#4e3b4d" d="M687.32 499.37c-2.8.02-14.23-1.55-16.32-8.08.36-.64 31.54-97.96 32.13-98.43 2.03-2.27 7.14 5.72 20.16 5.44 1.05.03 1.71 1.19 1.36 2.17l-31.58 97.19c-1.12 1.98-2.54 1.34-5.75 1.7Zm-14.38-7.61c8.36 7.04 16.32 5.66 18.26 5.18l31.41-96.66c-10.09-.49-15.74-3.85-18.1-5.69l-31.56 97.17Z"/><path fill="#e88ba3" d="M709.95 406.33c-4.42-1.43-6.96-3.3-7.12-3.42l1.97-3.78c.05.04 5.44 3.96 14.11 4.56l-.81 4.21c-3.15-.22-5.89-.84-8.14-1.57ZM708.08 412.12c-4.41-1.43-6.99-3.19-7.15-3.3l1.81-3.31-.91 1.66.91-1.66c.05.04 5.52 3.73 14.1 4.56l-.66 3.73c-3.13-.3-5.85-.95-8.1-1.68M684.26 485.44c-4.44-1.44-7.04-3.21-7.2-3.32l2.05-3.75c.05.04 5.49 3.71 14.03 4.53l-.75 4.23c-3.14-.3-5.88-.95-8.14-1.69ZM682.34 491.32c-4.41-1.43-6.99-3.19-7.15-3.3l1.81-3.31-.91 1.66.91-1.66c.05.04 5.52 3.73 14.1 4.56l-.66 3.73c-3.13-.3-5.85-.95-8.1-1.68"/><path fill="#faf3e9" d="M684.18 230.94c-.16-.04-32.45 8.24-39.56 10.09-.57.15-.7.83-.23 1.15l11.1 7.16 14.54-7.84 33.03-8.49c.39-.1.32-.62-.08-.63-4.73-.09-15.12-.39-18.81-1.44Z"/><path fill="#4e3b4d" d="m655.45 250.49-11.6-7.48c-1.21-.76-.86-2.65.52-2.96 26.19-6.81 39.68-10.21 40.09-10.09 3.61 1.03 14.17 1.33 18.55 1.41 1.52-.02 1.81 2.25.31 2.6l-32.91 8.46zm-9.8-8.69 9.9 6.38 14.25-7.65 28.31-7.27c-15.81-3.02-33.09 3.86-52.45 8.54Z"/><path fill="#fde888" d="M643.58 346.15V241.71c0-.51.53-.83 1.04-.68 3 .89 12.41 2.97 27.55-.14 2.79-.69.04 103.79.98 104.5-1.35 1.99-15.6 6.69-29.57.77Z"/><path fill="#4e3b4d" d="M657.84 349.91c-2.98-.41-13.25.18-15.26-3.76V241.71c-.02-1.16 1.22-1.99 2.33-1.64 3.23.96 12.34 2.87 27.06-.16 1.05-.24 2.2.58 2.18 1.67v103.8c-1.35 3.19-7.04 3.88-16.31 4.53m-13.26-3.98c14.79 4.38 25.24.31 27.56-.75V241.91c-14.68 2.98-24.01 1.16-27.56.15z"/><path fill="#e4b95c" d="M657.4 251.55c-6.5 0-10.7-.88-10.96-.94l.84-3.91-.42 1.96.42-1.96c.09.02 9.08 1.89 21.03-.02l.63 3.95c-4.31.69-8.23.92-11.55.92ZM657.41 258.03c-6.54 0-10.77-.89-11.03-.94l.99-3.77-.49 1.88.49-1.88c.09.02 9.03 1.87 20.9-.02l.74 3.81c-4.32.69-8.26.92-11.6.92M657.4 336.14c-6.5 0-10.7-.88-10.96-.94l.84-3.91-.42 1.96.42-1.96c.09.02 9.08 1.89 21.03-.02l.63 3.95c-4.31.69-8.23.92-11.55.92ZM657.41 342.62c-6.54 0-10.77-.89-11.03-.94l.99-3.77-.49 1.88.49-1.88c.09.02 9.03 1.87 20.9-.02l.74 3.81c-4.32.69-8.26.92-11.6.92M658.36 302.64c-2.78-3.55-12.41-7.24-11.2-14.74 1.04-5.62 9.83-4.89 11.2-.05 1.38-4.85 10.17-5.57 11.2.05 1.21 7.5-8.42 11.19-11.2 14.74"/><path fill="#faf3e9" d="M652.76 230.94c-.14-.04-28.47 8.24-34.7 10.09-.5.15-.62.83-.2 1.15l9.74 7.16 12.76-7.84 28.97-8.49c.34-.1.28-.62-.07-.63-4.15-.09-13.27-.39-16.5-1.44"/><path fill="#4e3b4d" d="m627.55 250.54-10.28-7.55c-1.08-.77-.77-2.58.5-2.92 50.7-14.44 23.1-9.03 51.5-8.69 1.45 0 1.76 2.22.34 2.59l-28.84 8.45zm-8.53-8.75 8.63 6.34 12.43-7.59 24.86-7.28c-4.45-.18-9.66-.54-12.21-1.28-2.66.71-26.34 7.64-33.71 9.81"/><path fill="#fde888" d="M617.15 346.15c.9-.74-1.72-105.73.91-105.12 2.63.89 10.89 2.97 24.17-.14 2.1.12.72 104.14.49 105.13-1.04.88-13.98 6.19-25.57.13"/><path fill="#4e3b4d" d="M629.65 349.91c-2.87-.4-11.6.13-13.51-3.76V241.71c-.02-1.13 1.17-2.03 2.23-1.63 2.82.95 10.76 2.85 23.62-.17 1.03-.26 2.11.6 2.08 1.67v103.8c-1.28 3.13-6.06 3.87-14.43 4.53Zm-11.5-3.95c12.81 4.31 21.86.33 23.93-.74V241.95c-12.58 2.88-20.67 1.19-23.93.16z"/><path fill="#e4b95c" d="M629.27 251.55c-5.76 0-9.49-.89-9.72-.95l.95-3.88c.08.02 7.89 1.87 18.26-.02l.72 3.94c-3.8.69-7.27.92-10.21.92ZM629.27 258.03c-5.74 0-9.45-.89-9.68-.94l.87-3.77-.43 1.88.43-1.88c.08.02 7.92 1.87 18.34-.02l.65 3.81c-3.79.69-7.25.92-10.17.92ZM629.27 336.14c-5.76 0-9.49-.89-9.72-.95l.95-3.88c.08.02 7.89 1.87 18.26-.02l.72 3.94c-3.8.69-7.27.92-10.21.92ZM629.27 342.62c-5.74 0-9.45-.89-9.68-.94l.87-3.77-.43 1.88.43-1.88c.08.02 7.92 1.87 18.34-.02l.65 3.81c-3.79.69-7.25.92-10.17.92ZM630.11 301.9c-20.13-14.47-3.97-22.45 0-13.64 3.98-8.82 20.12-.82 0 13.64"/><path fill="#ebc364" d="m733.2 232.5-.98 102.23-29.62 10.75h-10.38l7.33-106.59c.36.25 33.63-7.35 33.66-6.39Z"/><path fill="#4e3b4d" d="M702.77 346.48h-11.63l7.45-108.42 34.07-6.81c.38-.08.77.02 1.07.27 1.36.81-.99 102.8-.53 103.91l-30.44 11.04Zm-9.48-2h9.13l28.8-10.45.96-100.64-31.7 6.33-7.2 104.76Z"/><path fill="#faf3e9" d="M714.05 230.4c-.16-.04-32.45 8.24-39.56 10.09-.57.15-.7.83-.23 1.15l11.1 7.16 14.54-7.84 33.03-8.49c.39-.1.32-.62-.08-.63-4.73-.09-15.12-.39-18.81-1.44Z"/><path fill="#4e3b4d" d="m685.33 249.95-11.6-7.48c-1.21-.76-.86-2.65.52-2.96 26.19-6.81 39.65-10.2 40.09-10.09 3.61 1.03 14.17 1.33 18.55 1.41 1.52-.02 1.81 2.26.32 2.6l-32.91 8.46-14.96 8.06Zm-9.81-8.7 9.9 6.38 14.25-7.65 28.3-7.27c-15.8-3.02-33.09 3.86-52.45 8.54"/><path fill="#fde888" d="M673.45 345.61V241.17c0-.51.53-.83 1.04-.68 3 .89 12.41 2.97 27.55-.14 2.79-.69.04 103.79.98 104.5-1.35 1.99-15.6 6.69-29.57.77Z"/><path fill="#4e3b4d" d="M687.72 349.37c-2.98-.41-13.23.18-15.26-3.76V241.17c-.01-1.15 1.22-1.99 2.33-1.64 3.23.96 12.34 2.87 27.06-.16 1.05-.25 2.2.58 2.18 1.67v103.8c-1.35 3.19-7.04 3.88-16.3 4.53Zm-13.27-3.98c14.8 4.38 25.24.31 27.56-.75V241.37c-14.68 2.98-24.01 1.16-27.56.15z"/><path fill="#e4b95c" d="M687.28 251.01c-6.5 0-10.7-.88-10.96-.94l.84-3.91-.42 1.96.42-1.96c.09.02 9.08 1.89 21.03-.02l.63 3.95c-4.31.69-8.23.92-11.55.92ZM687.28 257.49c-6.54 0-10.77-.89-11.03-.94l.99-3.77-.49 1.88.49-1.88c.09.02 9.03 1.87 20.9-.02l.74 3.81c-4.32.69-8.26.92-11.6.92M687.28 335.6c-6.5 0-10.7-.88-10.96-.94l.84-3.91-.42 1.96.42-1.96c.09.02 9.08 1.89 21.03-.02l.63 3.95c-4.31.69-8.23.92-11.55.92ZM687.28 342.08c-6.54 0-10.77-.89-11.03-.94l.99-3.77-.49 1.88.49-1.88c.09.02 9.03 1.87 20.9-.02l.74 3.81c-4.32.69-8.26.92-11.6.92M688.24 302.09c-2.78-3.55-12.41-7.24-11.2-14.74 1.04-5.62 9.83-4.89 11.2-.05 1.38-4.85 10.17-5.57 11.2.05 1.21 7.5-8.42 11.19-11.2 14.74"/><path fill="#faf3e9" d="M622.69 544.05c-.14-.04-28.41 6.98-34.64 8.54-2.7.55 9.66 6.67 9.52 7.03l12.73-6.63 28.92-7.18c.34-.08.28-.52-.07-.53-4.14-.07-13.24-.33-16.47-1.22Z"/><path fill="#4e3b4d" d="m597.54 560.6-10.15-6.33c-1.07-.65-.75-2.25.45-2.5 22.93-5.76 34.7-8.64 35.1-8.53 2.32 1.44 16.72.02 17.39 2.18.07.56-.3 1.07-.88 1.21l-28.81 7.16-13.1 6.82Zm-8.58-7.36 8.67 5.4 12.48-6.47 24.78-6.15c-13.81-2.55-28.97 3.26-45.93 7.23Z"/><path fill="#add6ef" d="M587.15 641.54v-88.37c0-.44.47-.7.91-.58 2.62.75 10.87 2.52 24.12-.12.43-.09.85.2.85.59-.39.56.72 88.18-.37 88.37-1.14.72-13.66 5.28-25.52.11Z"/><path fill="#4e3b4d" d="M599.63 644.72c-3.06-.47-10.93.37-13.36-3.18v-88.37c0-1 1.08-1.68 2.04-1.39 2.83.81 10.81 2.43 23.7-.14.9-.2 1.92.47 1.9 1.42v87.83c-1.51 2.91-5.93 3.16-14.28 3.83m-11.61-3.37c12.95 3.71 22.1.26 24.13-.63v-87.38c-12.86 2.52-21.02.98-24.13.12z"/><path fill="#7aaad1" d="M599.25 561.49c-5.69 0-9.37-.75-9.59-.79l.74-3.31-.37 1.65.37-1.65c.08.02 7.95 1.6 18.41-.02l.55 3.34c-3.77.58-7.2.78-10.11.78M599.25 566.98c-5.73 0-9.43-.75-9.66-.8l.87-3.19-.43 1.59.43-1.59c.08.02 7.9 1.59 18.3-.02l.65 3.23c-3.79.58-7.23.78-10.16.78M599.25 633.07c-5.69 0-9.37-.75-9.59-.79l.74-3.31-.37 1.65.37-1.65c.08.02 7.95 1.6 18.41-.02l.55 3.34c-3.77.58-7.2.78-10.11.78M599.25 638.56c-5.73 0-9.43-.75-9.66-.8l.87-3.19-.43 1.59.43-1.59c.08.02 7.9 1.59 18.3-.02l.65 3.23c-3.79.58-7.23.78-10.16.78"/><path fill="#faf3e9" d="M672 544.05c-.14-.04-28.41 6.98-34.64 8.54-2.7.55 9.66 6.67 9.52 7.03l12.73-6.63 28.92-7.18c.34-.08.28-.52-.07-.53-4.14-.07-13.24-.33-16.47-1.22Z"/><path fill="#4e3b4d" d="m646.84 560.6-10.15-6.33c-1.07-.65-.75-2.25.45-2.5 22.93-5.76 34.74-8.64 35.1-8.53 2.32 1.44 16.72.02 17.39 2.18.07.56-.3 1.07-.88 1.21l-28.81 7.16-13.1 6.82Zm-8.58-7.36 8.67 5.4 12.48-6.47 24.78-6.15c-13.81-2.55-28.97 3.26-45.93 7.23Z"/><path fill="#add6ef" d="M636.45 641.54v-88.37c0-.44.47-.7.91-.58 2.62.75 10.87 2.52 24.12-.12.43-.09.85.2.85.59-.39.56.72 88.18-.37 88.37-1.14.72-13.66 5.28-25.52.11Z"/><path fill="#4e3b4d" d="M648.93 644.72c-3.06-.47-10.93.37-13.36-3.18v-88.37c0-1 1.08-1.68 2.04-1.39 2.83.81 10.81 2.43 23.7-.14.9-.21 1.92.47 1.91 1.42v87.83c-1.51 2.91-5.93 3.16-14.28 3.83Zm-11.61-3.37c12.95 3.71 22.1.26 24.13-.63v-87.38c-12.86 2.52-21.02.98-24.13.12z"/><path fill="#7aaad1" d="M648.55 561.49c-5.69 0-9.37-.75-9.59-.79l.74-3.31-.37 1.65.37-1.65c.08.02 7.95 1.6 18.41-.02l.55 3.34c-3.77.58-7.2.78-10.11.78M648.55 566.98c-5.73 0-9.43-.75-9.66-.8l.87-3.19-.43 1.59.43-1.59c.08.02 7.9 1.59 18.3-.02l.65 3.23c-3.79.58-7.23.78-10.16.78M648.55 633.07c-5.69 0-9.37-.75-9.59-.79l.74-3.31-.37 1.65.37-1.65c.08.02 7.95 1.6 18.41-.02l.55 3.34c-3.77.58-7.2.78-10.11.78M648.55 638.56c-5.73 0-9.43-.75-9.66-.8l.87-3.19-.43 1.59.43-1.59c.08.02 7.9 1.59 18.3-.02l.65 3.23c-3.79.58-7.23.78-10.16.78"/><path fill="#faf3e9" d="M644.49 544.05c-.12-.04-24.92 6.98-30.38 8.54-2.29.62 8.38 6.6 8.35 7.03l11.17-6.63 25.37-7.18c.3-.08.25-.52-.06-.53-3.63-.07-11.62-.33-14.44-1.22Z"/><path fill="#4e3b4d" d="m622.41 560.64-9-6.39c-.95-.66-.67-2.18.44-2.47 44.4-12.23 20.24-7.64 45.09-7.35.57.01 1.04.42 1.11.97 1.57 1.72-25.82 7.81-26.07 8.37zm-7.47-7.41 7.56 5.37 10.88-6.43 21.77-6.16c-3.9-.15-8.46-.46-10.69-1.08-2.32.6-23.07 6.46-29.52 8.3"/><path fill="#add6ef" d="M613.3 641.54c.75-.58-1.46-89.57.8-88.95 2.3.75 9.53 2.52 21.16-.12 1.8.05.66 88.13.43 88.95-.93.74-12.18 5.25-22.39.11Z"/><path fill="#4e3b4d" d="M624.25 644.72c-2.82-.39-9.69.24-11.83-3.18v-88.37c-.01-.98 1.03-1.71 1.96-1.38 2.47.81 9.42 2.41 20.68-.14.88-.22 1.85.49 1.82 1.41v87.83c-1.28 2.78-5.21 3.19-12.63 3.83m-10.07-3.34c11.22 3.64 19.14.28 20.96-.63v-87.38c-11.01 2.44-18.1 1.01-20.96.14z"/><path fill="#7aaad1" d="M623.92 561.49c-5.05 0-8.31-.76-8.51-.8l.83-3.29c.07.02 6.9 1.58 15.99-.02l.63 3.33c-3.33.59-6.36.78-8.94.78M623.92 566.98c-5.02 0-8.27-.75-8.47-.8l.76-3.19-.38 1.59.38-1.59c.07.02 6.93 1.59 16.05-.02l.57 3.23c-3.32.58-6.35.78-8.91.78M623.92 633.07c-5.05 0-8.31-.76-8.51-.8l.83-3.29c.07.02 6.9 1.58 15.99-.02l.63 3.33c-3.33.59-6.36.78-8.94.78M623.92 638.56c-5.02 0-8.27-.75-8.47-.8l.76-3.19-.38 1.59.38-1.59c.07.02 6.93 1.59 16.05-.02l.57 3.23c-3.32.58-6.35.78-8.91.78M714.92 545.38l-.86 86.5-25.93 9.09h-9.09l6.41-90.19c.31.22 29.43-6.23 29.47-5.4"/><path fill="#4e3b4d" d="M688.28 641.81H678.1l6.52-91.74 29.83-5.76c.33-.06.67.02.93.23 1.18.53-.86 87.09-.46 87.93l-26.65 9.34Zm-8.31-1.69h8l25.22-8.84.84-85.16-27.76 5.36z"/><path fill="#faf3e9" d="M698.15 543.59c-.14-.04-28.41 6.98-34.64 8.54-2.7.55 9.66 6.67 9.52 7.03l12.73-6.63 28.92-7.18c.34-.08.28-.52-.07-.53-4.14-.07-13.24-.33-16.47-1.22Z"/><path fill="#4e3b4d" d="m673 560.14-10.16-6.33c-1.07-.65-.75-2.25.45-2.5 22.93-5.76 34.72-8.63 35.1-8.53 3.16.87 12.41 1.12 16.24 1.19 1.33-.02 1.59 1.9.28 2.2l-28.82 7.16-13.1 6.82Zm-8.59-7.36 8.67 5.4 12.48-6.47 24.78-6.15c-13.81-2.55-28.97 3.26-45.92 7.23Z"/><path fill="#add6ef" d="M662.61 641.08v-88.37c0-.44.47-.7.91-.58 2.62.75 10.87 2.52 24.12-.12.43-.09.85.2.85.59-.39.56.72 88.18-.37 88.37-1.14.72-13.66 5.28-25.52.11Z"/><path fill="#4e3b4d" d="M675.09 644.27c-2.92-.43-11.11.31-13.36-3.18v-88.37c0-1 1.08-1.68 2.04-1.39 2.83.81 10.81 2.43 23.7-.14.9-.21 1.92.47 1.91 1.42v87.83c-1.51 2.91-5.92 3.16-14.27 3.83Zm-11.61-3.38c12.96 3.71 22.1.26 24.13-.63v-87.38c-12.86 2.52-21.02.98-24.13.12z"/><path fill="#7aaad1" d="M674.71 561.04c-5.69 0-9.37-.75-9.59-.79l.74-3.31-.37 1.65.37-1.65c.08.02 7.95 1.6 18.41-.02l.55 3.34c-3.77.58-7.2.78-10.11.78M674.71 566.52c-5.73 0-9.43-.75-9.66-.8l.87-3.19-.43 1.59.43-1.59c.08.02 7.9 1.59 18.3-.02l.65 3.23c-3.79.58-7.23.78-10.16.78M674.71 632.62c-5.69 0-9.37-.75-9.59-.79l.74-3.31-.37 1.65.37-1.65c.08.02 7.95 1.6 18.41-.02l.55 3.34c-3.77.58-7.2.78-10.11.78M674.71 638.1c-5.73 0-9.43-.75-9.66-.8l.87-3.19-.43 1.59.43-1.59c.08.02 7.9 1.59 18.3-.02l.65 3.23c-3.79.58-7.23.78-10.16.78"/><path fill="#faf3e9" d="M771.87 384.02c-.16-.04-32.45 8.24-39.56 10.09-.57.15-.7.83-.23 1.15l11.1 7.16 14.54-7.84 33.03-8.49c.39-.1.32-.62-.08-.63-4.73-.09-15.12-.39-18.81-1.44Z"/><path fill="#4e3b4d" d="m743.14 403.58-11.6-7.48c-1.21-.76-.86-2.65.52-2.96 26.19-6.81 39.64-10.21 40.09-10.09 3.61 1.03 14.17 1.33 18.55 1.41 1.52-.02 1.81 2.25.31 2.6l-32.91 8.46zm-9.8-8.7 9.9 6.38 14.25-7.65 28.31-7.27c-15.81-3.02-33.09 3.86-52.45 8.54Z"/><path fill="#fbbad3" d="M731.27 499.23V394.79c0-.51.53-.83 1.04-.68 3 .89 12.41 2.97 27.55-.14 2.79-.69.04 103.79.98 104.5-1.35 1.99-15.6 6.69-29.57.77Z"/><path fill="#4e3b4d" d="M745.53 503c-2.98-.41-13.25.18-15.26-3.76V394.8c-.01-1.15 1.22-1.99 2.33-1.64 3.23.96 12.34 2.87 27.06-.16 1.05-.24 2.2.58 2.17 1.67v103.8c-1.35 3.19-7.04 3.88-16.3 4.53m-13.26-3.99c14.79 4.38 25.24.31 27.56-.75V394.99c-14.68 2.98-24.01 1.16-27.56.15z"/><path fill="#e692a7" d="M745.09 404.64c-6.5 0-10.7-.88-10.96-.94l.84-3.91-.42 1.96.42-1.96c.09.02 9.08 1.89 21.03-.02l.63 3.95c-4.31.69-8.23.92-11.55.92ZM745.09 411.12c-6.54 0-10.77-.89-11.03-.94l.99-3.77-.49 1.88.49-1.88c.09.02 9.03 1.87 20.9-.02l.74 3.81c-4.32.69-8.26.92-11.6.92M745.09 489.23c-6.5 0-10.7-.88-10.96-.94l.84-3.91-.42 1.96.42-1.96c.09.02 9.08 1.89 21.03-.02l.63 3.95c-4.31.69-8.23.92-11.55.92ZM745.09 495.71c-6.54 0-10.77-.89-11.03-.94l.99-3.77-.49 1.88.49-1.88c.09.02 9.03 1.87 20.9-.02l.74 3.81c-4.32.69-8.26.92-11.6.92M745.93 433.3l2.41 7.41h7.79l-6.3 4.58 2.41 7.41-6.31-4.58-6.31 4.58 2.41-7.41-6.3-4.58h7.79z"/><path fill="#faf3e9" d="M828.18 384.02c-.16-.04-32.45 8.24-39.56 10.09-.57.15-.7.83-.23 1.15l11.1 7.16 14.54-7.84 33.03-8.49c.39-.1.32-.62-.08-.63-4.73-.09-15.12-.39-18.81-1.44Z"/><path fill="#4e3b4d" d="m799.45 403.58-11.6-7.48c-1.21-.76-.86-2.65.52-2.96 26.19-6.81 39.68-10.21 40.09-10.09 3.61 1.03 14.17 1.33 18.55 1.41 1.52-.02 1.81 2.25.31 2.6l-32.91 8.46zm-9.81-8.7 9.9 6.38 14.25-7.65 28.31-7.27c-15.81-3.02-33.09 3.86-52.45 8.54Z"/><path fill="#fbbad3" d="M787.58 499.23V394.79c0-.51.53-.83 1.04-.68 3 .89 12.41 2.97 27.55-.14 2.79-.69.04 103.79.98 104.5-1.35 1.99-15.6 6.69-29.57.77Z"/><path fill="#4e3b4d" d="M801.84 503c-2.98-.41-13.25.18-15.26-3.76V394.8c-.02-1.16 1.22-1.99 2.33-1.64 3.23.96 12.34 2.87 27.06-.16 1.05-.24 2.2.58 2.18 1.67v103.8c-1.35 3.19-7.04 3.88-16.31 4.53m-13.26-3.99c14.79 4.38 25.24.31 27.56-.75V394.99c-14.68 2.98-24.01 1.16-27.56.15z"/><path fill="#e692a7" d="M801.4 404.64c-6.5 0-10.7-.88-10.96-.94l.84-3.91-.42 1.96.42-1.96c.09.02 9.08 1.89 21.03-.02l.63 3.95c-4.31.69-8.23.92-11.55.92ZM801.4 411.12c-6.54 0-10.77-.89-11.03-.94l.99-3.77-.49 1.88.49-1.88c.09.02 9.03 1.87 20.9-.02l.74 3.81c-4.32.69-8.26.92-11.6.92M801.4 489.23c-6.5 0-10.7-.88-10.96-.94l.84-3.91-.42 1.96.42-1.96c.09.02 9.08 1.89 21.03-.02l.63 3.95c-4.31.69-8.23.92-11.55.92ZM801.4 495.71c-6.54 0-10.77-.89-11.03-.94l.99-3.77-.49 1.88.49-1.88c.09.02 9.03 1.87 20.9-.02l.74 3.81c-4.32.69-8.26.92-11.6.92M802.36 433.54l2.41 7.42h7.79l-6.3 4.58 2.41 7.41-6.31-4.58-6.31 4.58 2.41-7.41-6.3-4.58h7.79z"/><path fill="#faf3e9" d="M796.76 384.02c-.14-.04-28.47 8.24-34.7 10.09-.5.15-.62.83-.2 1.15l9.74 7.16 12.76-7.84 28.97-8.49c.34-.1.28-.62-.07-.63-4.15-.09-13.27-.39-16.5-1.44"/><path fill="#4e3b4d" d="m771.55 403.62-10.28-7.55c-1.08-.77-.77-2.58.5-2.92 50.7-14.44 23.1-9.03 51.5-8.69 1.45 0 1.76 2.22.34 2.59l-28.84 8.45zm-8.53-8.75 8.63 6.34 12.43-7.59 24.86-7.28c-4.45-.18-9.66-.54-12.21-1.28-2.66.71-26.34 7.64-33.71 9.81"/><path fill="#fbbad3" d="M761.14 499.23c.9-.74-1.72-105.73.91-105.12 2.63.89 10.89 2.97 24.17-.14 2.1.12.72 104.14.49 105.13-1.04.88-13.98 6.19-25.57.13"/><path fill="#4e3b4d" d="M773.65 503c-2.87-.4-11.6.13-13.51-3.76V394.8c-.02-1.13 1.17-2.03 2.23-1.63 2.82.95 10.76 2.85 23.62-.17 1.03-.26 2.11.6 2.08 1.67v103.8c-1.28 3.13-6.06 3.87-14.43 4.53Zm-11.51-3.96c12.81 4.31 21.86.33 23.93-.74V395.03c-12.58 2.88-20.67 1.19-23.93.16z"/><path fill="#e692a7" d="M773.27 404.63c-5.76 0-9.49-.89-9.72-.95l.95-3.88c.08.02 7.89 1.87 18.26-.02l.72 3.94c-3.8.69-7.27.92-10.21.92ZM773.27 411.12c-5.74 0-9.45-.89-9.68-.94l.87-3.77-.43 1.88.43-1.88c.08.02 7.92 1.87 18.34-.02l.65 3.81c-3.79.69-7.25.92-10.17.92ZM773.27 489.23c-5.76 0-9.49-.89-9.72-.95l.95-3.88c.08.02 7.89 1.87 18.26-.02l.72 3.94c-3.8.69-7.27.92-10.21.92ZM773.27 495.71c-5.74 0-9.45-.89-9.68-.94l.87-3.77-.43 1.88.43-1.88c.08.02 7.92 1.87 18.34-.02l.65 3.81c-3.79.69-7.25.92-10.17.92ZM774.11 433.25l2.41 7.41h7.79l-6.3 4.58 2.41 7.41-6.31-4.58-6.31 4.58 2.41-7.41-6.3-4.58h7.79z"/><path fill="#75a9d0" d="m661.62 78.98-1.18 102.23-35.67 10.75h-12.5l8.82-106.59c.41.26 40.43-7.35 40.53-6.39"/><path fill="#4e3b4d" d="M624.92 192.95h-13.73c.11-1.39 8.86-107.08 8.97-108.45l40.9-6.79c.41-.07.82.04 1.12.31 1.3.63-1.18 102.96-.75 103.93zm-11.56-2h11.26l34.82-10.49 1.16-100.64-38.58 6.4-8.67 104.73Zm47.26-111.98"/><path fill="#faf3e9" d="M638.57 76.87c-.19-.04-39.08 8.24-47.63 10.09-.69.15-.85.83-.27 1.15l13.37 7.16 17.51-7.84c-.09-.54 42.03-7.86 39.67-9.11-5.7-.09-18.21-.39-22.65-1.44Z"/><path fill="#4e3b4d" d="M603.99 96.38c-.72-.86-15.76-7.22-14.67-9.02.1-.68.65-1.22 1.4-1.38.5-.1 46.76-10.1 48.08-10.09 2.56 1.59 24.19.16 23.82 2.61.07.67-.4 1.26-1.1 1.41l-39.67 8.47-17.87 8Zm-11.91-8.64 11.99 6.42 17.27-7.7 34.03-7.26c-18.93-3-39.42 3.72-63.29 8.55Z"/><path fill="#a3d0ec" d="M589.68 192.08c1.2-.7-2.33-106.34 1.25-105.12 3.61.89 14.95 2.97 33.18-.14 2.87-.4 1 104.31.67 105.13-1.69.82-18.48 6.28-35.1.13"/><path fill="#4e3b4d" d="M606.85 195.85c-3.21-.44-15.9.28-18.17-3.76V87.65c0-1.21 1.31-1.96 2.49-1.65 3.92.97 14.96 2.89 32.77-.16.63-.11 1.29.06 1.75.45 1.74.96 0 103.68.59 105.04-1.35 3.23-8.75 3.9-19.43 4.53Zm-16.17-4.03c18.13 4.48 30.89.28 33.6-.75V87.81c-18.19 3.11-29.54 1.12-33.6.12z"/><path fill="#72a8d2" d="M590.67 95.04c.12.03 17.29 2.73 33.6 0v11.74c-10.09.03-28.96.39-33.6.21M590.67 178.97c.12.02 17.29 1.64 33.6 0v7.02c-10.09.02-28.96.23-33.6.13M607.48 168.37c-2.5 0-4.52-2.03-4.52-4.52v-44.67c0-2.5 2.03-4.52 4.52-4.52 2.5 0 4.52 2.03 4.52 4.52v44.67c0 2.5-2.03 4.52-4.52 4.52"/><path fill="#75a9d0" d="m681.54 78.98-.92 102.23-27.89 10.75h-9.77l6.9-106.59c.31.26 31.71-7.36 31.69-6.39Z"/><path fill="#4e3b4d" d="M652.84 192.95H642.1c.09-1.39 6.93-107.08 7.02-108.45l31.98-6.79c.32-.07.64.04.88.31 1.03.94-.93 102.8-.58 103.93l-28.55 11Zm-9.04-2h8.81l27.23-10.49.91-100.64-30.17 6.4zm36.95-111.98"/><path fill="#faf3e9" d="M663.51 76.87c-.15-.04-30.56 8.24-37.25 10.09-.54.15-.66.83-.21 1.15l10.45 7.16 13.69-7.84c-.08-.52 33.08-7.94 31.02-9.11-4.46-.09-14.24-.39-17.71-1.44Z"/><path fill="#4e3b4d" d="M636.47 96.38c-.72-.94-12.4-7.33-11.47-9.02-1.09-2.1 37.3-10.83 38.69-11.47 2.21 1.61 18.95.18 18.63 2.61 1.92 2-31.65 9.26-31.87 9.88l-13.97 7.99Zm-9.31-8.64 9.37 6.42 13.5-7.7 26.61-7.26c-4.84-.18-10.52-.55-13.16-1.3-2.13.51-28.22 7.62-36.32 9.85Z"/><path fill="#a3d0ec" d="M625.28 192.08c.93-.68-1.8-105.91.98-105.12 2.82.89 11.69 2.97 25.94-.14 2.22.02.8 104.16.52 105.13-1.16.87-14.87 6.21-27.44.13"/><path fill="#4e3b4d" d="M638.71 195.85c-2.84-.42-12.43.2-14.21-3.76V87.65c-.04-1.03.94-2 1.95-1.65 3.07.97 11.69 2.89 25.62-.16.98-.22 1.87.69 1.83 1.68v103.8c-1.1 3.18-6.54 3.89-15.19 4.53m-12.65-4.03c14.18 4.48 24.16.28 26.27-.75V87.81c-14.22 3.11-23.1 1.12-26.27.12z"/><path fill="#72a8d2" d="M626.06 95.04c.1.03 13.52 2.73 26.27 0v11.74c-7.89.03-22.64.39-26.27.21M626.06 178.97c.1.02 13.52 1.64 26.27 0v7.02c-7.89.02-22.64.23-26.27.13M639.2 168.37a3.54 3.54 0 0 1-3.54-3.54v-46.64a3.54 3.54 0 0 1 7.08 0v46.64a3.54 3.54 0 0 1-3.54 3.54"/><path fill="#75a9d0" d="m703.85 92.78-.82 90.16-24.8 9.48h-8.69l6.13-94c.32.21 28.17-6.47 28.18-5.63Z"/><path fill="#4e3b4d" d="M678.32 193.29h-9.55c.08-1.22 6.16-94.44 6.24-95.64l28.44-5.99c.29-.06.57.04.78.27.92.83-.83 90.66-.52 91.65l-25.39 9.7Zm-8.04-1.76h7.83l24.22-9.25.81-88.76-26.83 5.65zm32.87-98.76"/><path fill="#faf3e9" d="M687.81 90.92c-.13-.04-27.18 7.27-33.13 8.9-2.58.57 9.2 6.93 9.11 7.33l12.18-6.91 27.66-7.49c.33-.09.27-.55-.07-.55-3.96-.08-12.66-.34-15.75-1.27Z"/><path fill="#4e3b4d" d="M663.77 108.13c-.64-.82-11.03-6.46-10.2-7.95-1.17-1.74 33.3-9.62 34.41-10.11 3.05.92 11.92 1.18 15.6 1.25 1.16-.01 1.3 2.05.21 2.3l-27.59 7.47-12.42 7.05Zm-8.29-7.63 8.34 5.66 12.01-6.79 23.67-6.41c-13.39-2.62-27.36 3.29-44.01 7.54Z"/><path fill="#a3d0ec" d="M653.81 192.53v-92.11c0-.43.44-.74.87-.6 2.51.79 10.39 2.62 23.07-.12 2.32-.56.05 91.55.82 92.16-1.07 1.75-13.15 5.9-24.76.68Z"/><path fill="#4e3b4d" d="M665.76 195.85c-2.68-.41-10.83.26-12.64-3.32v-92.11c-.04-.91.84-1.76 1.73-1.46 2.73.85 10.4 2.55 22.79-.14.87-.2 1.66.6 1.63 1.48v91.54c-1.28 3.01-5.57 3.3-13.51 4Zm-11.25-3.55c12.61 3.95 21.48.25 23.37-.67v-91.07c-12.65 2.74-20.54.99-23.37.11z"/><path fill="#72a8d2" d="M654.51 106.94c.09.02 12.02 2.41 23.37 0v10.35c-7.02.03-20.14.34-23.36.19M654.51 180.96c.09.01 12.02 1.44 23.37 0v6.19c-7.02.02-20.14.2-23.36.11M666.64 171.61c-1.76.24-3.61-.76-3.59-2.7v-41.97c-.06-3.65 6.35-3.66 6.29 0v41.97c0 1.49-1.21 2.7-2.7 2.7"/><path fill="#75a9d0" d="m751.14 80.04-1.18 102.23-35.67 10.75h-12.5l8.82-106.59c.41.26 40.43-7.35 40.53-6.39"/><path fill="#4e3b4d" d="M714.44 194.02h-13.73c.11-1.39 8.86-107.08 8.97-108.45l40.9-6.79c.41-.07.82.04 1.12.31 1.3.63-1.18 102.96-.75 103.93zm-11.56-2h11.26l34.82-10.49 1.16-100.64-38.58 6.4-8.67 104.73Zm47.26-111.99"/><path fill="#faf3e9" d="M728.08 77.94c-.19-.04-39.08 8.24-47.63 10.09-.69.15-.85.83-.27 1.15l13.37 7.16 17.51-7.84c-.09-.54 42.03-7.86 39.67-9.11-5.7-.09-18.21-.39-22.65-1.44Z"/><path fill="#4e3b4d" d="M693.51 97.45c-.72-.86-15.76-7.22-14.67-9.02.1-.68.65-1.22 1.4-1.38.5-.1 46.76-10.1 48.08-10.09 2.56 1.59 24.19.16 23.82 2.61.07.67-.4 1.26-1.1 1.41l-39.67 8.47-17.87 8ZM681.6 88.8l11.99 6.42 17.27-7.7 34.03-7.26c-18.93-3-39.42 3.72-63.29 8.55Z"/><path fill="#a3d0ec" d="M679.2 193.15c1.2-.7-2.33-106.34 1.25-105.12 3.61.89 14.95 2.97 33.18-.14 2.87-.4 1 104.31.67 105.13-1.69.82-18.48 6.28-35.1.13"/><path fill="#4e3b4d" d="M696.37 196.91c-3.21-.44-15.9.28-18.17-3.76V88.71c0-1.21 1.31-1.96 2.49-1.65 3.92.97 14.96 2.89 32.77-.16.63-.11 1.29.06 1.75.45 1.74.96 0 103.68.59 105.04-1.35 3.23-8.75 3.9-19.43 4.53Zm-16.17-4.02c18.13 4.48 30.89.28 33.6-.75V88.88c-18.19 3.11-29.54 1.12-33.6.12z"/><path fill="#72a8d2" d="M680.19 96.1c.12.03 17.29 2.73 33.6 0v11.74c-10.09.03-28.96.39-33.6.21M680.19 180.03c.12.02 17.29 1.64 33.6 0v7.02c-10.09.02-28.96.23-33.6.13M697 169.43c-2.5 0-4.52-2.03-4.52-4.52v-44.67c0-2.5 2.03-4.52 4.52-4.52 2.5 0 4.52 2.03 4.52 4.52v44.67c0 2.5-2.03 4.52-4.52 4.52"/><path fill="#e291ab" d="m795.26 243-.81 93.26-24.48 9.8h-8.58l6.05-97.24c.27.24 27.84-6.72 27.81-5.83Z"/><path fill="#4e3b4d" d="M770.16 347.06h-9.83l6.17-99.05 28.27-6.24c.37-.08.74 0 1.03.24 1.37.79-.82 93.82-.35 94.92l-25.28 10.12Zm-7.7-2h7.32l23.68-9.48.8-91.64-25.85 5.7-5.94 95.42Zm31.8-102.07"/><path fill="#faf3e9" d="M779.44 241.08c-.13-.04-26.82 7.52-32.69 9.21-2.54.58 9.06 7.15 8.99 7.58l12.02-7.15 27.29-7.74c.32-.09.27-.57-.07-.57-3.91-.08-12.5-.36-15.54-1.32Z"/><path fill="#4e3b4d" d="m755.68 259.05-9.71-6.91c-1.07-.74-.76-2.5.49-2.83 32.62-9.36 33.03-9.27 33.27-9.2 2.95.93 11.65 1.2 15.26 1.27 1.44-.01 1.73 2.18.32 2.53l-27.17 7.71-12.47 7.42Zm-7.85-8.04 7.95 5.66 11.7-6.92 22.89-6.49c-4.06-.17-8.65-.5-10.96-1.14-2.51.65-24.45 6.86-31.57 8.9Z"/><path fill="#fcb5a8" d="M745.89 346.18c.82-.62-1.59-96.56.86-95.9 2.48.81 10.26 2.71 22.77-.13 1.99.11.67 94.97.46 95.91-1 .8-13.11 5.66-24.09.12"/><path fill="#4e3b4d" d="M757.67 349.7c-2.87-.43-10.81.24-12.78-3.52V250.9c-.02-1.09 1.14-1.95 2.17-1.57 2.65.87 10.13 2.6 22.23-.15 1-.25 2.05.57 2.03 1.61v94.69c-1.37 3.12-5.6 3.51-13.65 4.22m-10.78-3.76c11.95 3.87 20.41.34 22.43-.67v-94.05c-11.74 2.59-19.32 1.09-22.43.15v94.56Z"/><path fill="#e88ba3" d="M757.3 260.16c-5.41 0-8.91-.91-9.12-.97l.82-3.89c.07.02 7.46 1.93 17.28-.02l.62 3.94c-3.57.71-6.83.95-9.59.95ZM757.31 265.8c-5.41 0-8.9-.81-9.12-.86l.82-3.44-.41 1.72.41-1.72c.07.02 7.46 1.71 17.27-.02l.61 3.48c-3.57.63-6.83.84-9.59.84ZM757.31 337.23c-5.44 0-8.96-.82-9.17-.87l.92-3.89c.07.02 7.42 1.7 17.18-.02l.7 3.94c-3.58.63-6.85.84-9.62.84ZM757.31 342.97c-5.41 0-8.9-.81-9.12-.86l.82-3.44-.41 1.72.41-1.72c.07.02 7.46 1.71 17.27-.02l.61 3.48c-3.57.63-6.83.84-9.59.84Z"/><path fill="#88c7b7" d="m634.36 387.13-.76 102.88-22.98 10.82h-8.05l5.68-107.27c.26.26 26.19-7.43 26.11-6.43"/><path fill="#4e3b4d" d="M610.84 501.83h-9.33l5.78-109.06 26.56-6.89c.36-.09.73-.01 1.02.21 1.43.65-.75 103.52-.28 104.55l-23.75 11.18Zm-7.22-2h6.77l22.21-10.45.75-101.3-24.14 6.26zm29.74-112.71"/><path fill="#faf3e9" d="M619.51 385.01c-.12-.04-25.17 8.3-30.69 10.16-2.37.63 8.43 7.84 8.44 8.36l11.28-7.89 25.62-8.54c.3-.1.25-.62-.06-.63-3.67-.09-11.73-.39-14.59-1.45Z"/><path fill="#4e3b4d" d="m597.2 404.78-9.2-7.69c-.95-.77-.69-2.51.5-2.87 44.73-14.51 20.52-9.13 45.62-8.76 1.41-.01 1.7 2.19.36 2.58l-25.48 8.5-11.79 8.24Zm-7.48-8.86 7.59 6.35 10.91-7.58 22.06-7.35c-3.92-.18-8.5-.54-10.8-1.28-2.62.81-23.34 7.7-29.76 9.86"/><path fill="#b6e4d5" d="M588.01 500.96c.09-.44-.15-105.08.07-105.45 3.21-.54 9.48 3.28 22.11-.49 2.18-.33.02 104.47.76 105.17-.6 1.87-12.72 6.75-22.94.77"/><path fill="#4e3b4d" d="M599.07 504.74c-2.85-.35-10.17.05-12.06-3.78V395.85c-.11-4.31 9.14 2.79 22.92-1.79 1.02-.29 2.04.61 2.01 1.67V500.2c-1.2 3.12-5.25 3.85-12.87 4.55Zm-10.06-3.93c11.2 4.27 19.1.34 20.93-.74V396.13c-10.87 2.8-17.96 1.21-20.95.17zm-.55-104.71"/><path fill="#88c7b7" d="M598.73 406.06c-5.08 0-8.36-1.01-8.56-1.07l.77-4.29c.07.02 7 2.13 16.22-.03l.58 4.35c-3.36.78-6.41 1.05-9 1.05ZM598.74 412.28c-5.08 0-8.35-.89-8.56-.95l.77-3.79-.38 1.9.38-1.9c.07.02 7 1.89 16.22-.02l.57 3.84c-3.35.69-6.41.93-9 .93ZM598.74 491.09c-5.11 0-8.41-.9-8.61-.96l.87-4.29c.07.02 6.96 1.87 16.13-.03l.65 4.35c-3.37.7-6.43.93-9.03.93ZM598.74 497.42c-5.08 0-8.35-.89-8.56-.95l.77-3.79-.38 1.9.38-1.9c.07.02 7 1.89 16.22-.02l.57 3.84c-3.35.69-6.41.93-9 .93ZM666.75 375.39l-.76 113.08-22.98 11.89h-8.05l5.68-117.91c.26.29 26.23-8.17 26.11-7.06"/><path fill="#4e3b4d" d="M643.26 501.36h-9.34l5.77-119.67 26.54-7.56c.36-.1.73-.03 1.02.19 1.49.68-.75 113.69-.25 114.77l-23.73 12.28Zm-7.25-2h6.76l22.22-11.5.75-111.52-24.14 6.88-5.6 116.14Z"/><path fill="#faf3e9" d="M651.9 373.06c-.12-.05-25.17 9.12-30.69 11.16-.44.16-.55.92-.17 1.27l8.61 7.92 11.28-8.67 25.62-9.39c1.54-1.38-13.79-.88-14.65-2.29"/><path fill="#4e3b4d" d="m629.59 394.72-9.23-8.48c-.9-.8-.65-2.55.5-2.95 46.2-16.05 18.16-10.16 45.65-9.63 1.4 0 1.69 2.21.38 2.63l-25.48 9.34-11.83 9.09Zm-7.61-9.71 7.73 7.1 10.88-8.3 22.55-8.26c-4-.19-8.85-.58-11.27-1.42-2.75.94-23.68 8.59-29.89 10.89Z"/><path fill="#b6e4d5" d="M620.41 500.51c.79-.82-1.52-116.65.81-116.28 2.33.98 9.63 3.29 21.37-.16 2.2-.24 0 114.82.76 115.6-.48 2.04-12.9 7.41-22.94.85Z"/><path fill="#4e3b4d" d="M631.47 504.57c-2.84-.31-10.25-.11-12.06-4.06V384.98c-.04-4.58 8.93 3.15 22.9-1.87 1.06-.32 2.07.64 2.04 1.73v114.83c-1.14 3.2-5.25 4.19-12.87 4.91Zm-10.06-4.14c11.25 4.73 19.17.33 20.93-.82V385.18c-10.83 3.06-17.91 1.34-20.94.2v115.05Z"/><path fill="#88c7b7" d="M631.12 396.2c-5.08 0-8.36-1.11-8.56-1.18l.77-4.72c.07.02 7 2.34 16.22-.03l.58 4.78c-3.36.86-6.41 1.15-9 1.15ZM631.13 403.03c-5.08 0-8.35-.98-8.56-1.04l.77-4.17-.38 2.08.38-2.08c.07.02 7 2.07 16.22-.03l.57 4.22a40.8 40.8 0 0 1-9 1.02M631.13 489.66c-5.11 0-8.41-.99-8.61-1.05l.87-4.72c.07.02 6.96 2.06 16.13-.03l.65 4.78c-3.37.77-6.43 1.02-9.03 1.02ZM631.13 496.61c-5.08 0-8.35-.98-8.56-1.04l.77-4.17-.38 2.08.38-2.08c.07.02 7 2.07 16.22-.03l.57 4.22a40.8 40.8 0 0 1-9 1.02"/><path fill="#a3ddd0" d="m787.52 91.62 19.64 4.84c1.69.28-25.14 94.85-24.71 95.54-2.72 1.07-18.69-2.08-20.36-4.29.2-.01 24.46-98.28 25.43-96.08Z"/><path fill="#4e3b4d" d="M781.91 193.43c-8.48-.91-19.22-2.65-20.68-5.22-.93-1.27 25.12-96.59 25.02-97.88.66-.15 1.23-.44 1.78.39.63.61 20.54 4.26 20.35 5.49 1.08 1.33-25.09 94.68-24.95 96.05-.19.7-.8 1.17-1.51 1.17Zm-18.83-6.07c1.13 1.09 7.75 2.8 18.5 4.02l24.92-94.06-18.8-4.63-24.61 94.66Zm24.68-96.71"/><path fill="#70baa9" d="m824.61 180.28-41.45 11.95c-2.29.26 25.15-95.03 24.56-95.63l28.95-7.11z"/><path fill="#4e3b4d" d="M783.02 193.25c-.95.02-1.71-.96-1.44-1.88l25.33-95.6 30.95-7.6-12.34 92.89c-.6.11-41.89 12.19-42.49 12.19Zm25.51-95.82-24.79 93.59 39.96-11.52 11.78-88.69z"/><path fill="#fbebf2" d="m832.42 82.01-45.32 8.81c-.43.32 20.62 5.65 20.63 5.78l28.83-7.08c.2-.12-4.04-7.45-4.15-7.51Z"/><path fill="#4e3b4d" d="M807.73 97.63c-.38-.07-21.3-5.81-21.66-5.9-2.85-3.33 46.53-9.85 46.88-10.85l.44.68 4.35 7.78c-.15.47-.38 1.04-.93 1.14l-29.08 7.14Zm-16.56-6.58 16.57 4.52 27.42-6.74-3.2-5.71z"/><path fill="#70baa9" d="m783.738 107.212 2.503-8.977 18.64 5.197-2.504 8.977zM764.113 183.157l2.409-9.003 18.364 4.913-2.41 9.004zM778.59 164.3a3.45 3.45 0 0 1-2.4-4.26l9.24-33.14a3.45 3.45 0 0 1 4.26-2.4 3.45 3.45 0 0 1 2.4 4.26l-9.24 33.14a3.45 3.45 0 0 1-4.26 2.4"/><path fill="#ebc364" d="m821.11 223.59-.68 110.38-20.54 11.6h-7.2l5.08-115.09c.23.27 23.49-7.98 23.34-6.89"/><path fill="#4e3b4d" d="M800.16 346.58h-8.51l5.16-116.83 23.78-7.4c.35-.11.72-.05 1.02.18 1.49.68-.67 110.96-.17 112.04l-21.27 12.02Zm-6.42-2h5.89l19.81-11.19.67-108.8-21.36 6.65-5 113.34Z"/><path fill="#faf3e9" d="M807.84 221.32c-.11-.05-22.5 8.9-27.43 10.9-2.06.75 7.45 8.32 7.54 8.97l10.09-8.46 22.9-9.16c1.31-1.36-12.22-.84-13.1-2.24Z"/><path fill="#4e3b4d" d="m787.89 242.54-8.35-8.38c-.81-.78-.6-2.47.49-2.87 41.27-15.67 16.33-9.94 40.88-9.41.59.02 1.08.46 1.19 1.08 1.76 1.87-23.15 9.92-23.54 10.63zm-6.71-9.56 6.82 6.85 9.5-7.98c.17-.06 20.07-8.03 20.23-8.1-3.53-.18-7.76-.57-9.94-1.37-2.66 1-21.1 8.36-26.63 10.59Z"/><path fill="#fde888" d="M779.68 345.72c.08-.47-.13-112.73.06-113.13 2.81-.6 8.46 3.53 19.76-.53.34-.11.68.25.68.75v112.08c-.34 1.98-11.69 7.22-20.5.83"/><path fill="#4e3b4d" d="M789.57 349.7c-2.56-.25-9.4-.24-10.89-3.99V232.94c.06-4.54 8.15 3.06 20.52-1.84 1.05-.33 2.01.62 1.98 1.7v112.08c-.98 3.04-4.7 4.13-11.61 4.81Zm-8.89-4.05c9.92 4.53 16.91.33 18.5-.79V233.22c-9.44 2.87-15.7 1.33-18.5.21v112.23Z"/><path fill="#e4b95c" d="M789.28 243.41c-4.71 0-7.77-1-7.96-1.06l1.27-3.79c.06.02 6.04 1.93 13.98-.04l.96 3.88c-3.07.76-5.87 1.02-8.26 1.02ZM789.27 250.57c-4.54 0-7.47-.96-7.65-1.02l.69-4.07-.34 2.03.34-2.03c.06.02 6.26 2.02 14.5-.02l.51 4.12c-3 .75-5.73.99-8.04.99ZM789.28 334.75c-4.71 0-7.77-1-7.96-1.06l1.27-3.79c.06.02 6.04 1.93 13.98-.04l.96 3.88c-3.07.76-5.87 1.02-8.26 1.02ZM789.27 341.91c-4.54 0-7.47-.96-7.65-1.02l.69-4.07-.34 2.03.34-2.03c.06.02 6.26 2.02 14.5-.02l.51 4.12c-3 .75-5.73.99-8.04.99Z"/><path fill="#ebc364" d="m847.46 223.59-.65 110.38-19.59 11.6h-6.87l4.85-115.09c.23.27 22.42-7.98 22.26-6.89"/><path fill="#4e3b4d" d="M827.49 346.58h-8.18l4.92-116.82 22.7-7.41c.35-.11.71-.05 1.01.16 1.51.68-.64 110.95-.13 112.03l-20.32 12.03Zm-6.09-2h5.55l18.87-11.18.64-108.79-20.29 6.62z"/><path fill="#faf3e9" d="M834.8 221.32c-.1-.05-21.46 8.9-26.17 10.9-1.94.78 7.08 8.28 7.19 8.97l9.62-8.46 21.85-9.16c1.21-1.37-11.6-.82-12.49-2.24Z"/><path fill="#4e3b4d" d="M815.76 242.57c-.6-1.08-9.36-8.63-8.43-10.11.12-.54.45-.97.9-1.16 26.28-11.15 26.52-11.09 26.98-10.88 1.59.74 6.09 1.29 12.05 1.47.58.02 1.06.44 1.17 1.06 1.66 1.9-22.01 9.88-22.45 10.64l-10.22 8.99Zm-6.36-9.6 6.48 6.82 9.02-7.94 19.33-8.11c-3.36-.18-7.37-.57-9.46-1.36-2.64 1.04-20.13 8.36-25.37 10.58Z"/><path fill="#fde888" d="M807.94 345.72c.68-.76-1.31-113.74.69-113.5 1.98.96 8.21 3.21 18.22-.15 1.59.61.55 112.25.37 113.51-.62.99-11.12 6.6-19.28.14"/><path fill="#4e3b4d" d="M817.38 349.71c-2.45-.21-9.08-.32-10.43-3.99V232.95c.12-4.56 7.82 3.06 19.59-1.84 1.05-.35 2 .61 1.96 1.7v112.08c-.91 2.98-4.48 4.15-11.12 4.82m-8.44-4.05c9.41 4.5 16.04.33 17.55-.79V233.23c-8.9 2.82-14.84 1.33-17.55.22z"/><path fill="#e4b95c" d="M817.1 243.41c-4.53 0-7.47-1.01-7.65-1.07l1.32-3.77c.06.02 5.71 1.92 13.23-.05l1.01 3.87c-2.94.77-5.63 1.02-7.92 1.02ZM817.09 250.57c-4.33 0-7.12-.96-7.3-1.02l.65-4.07-.33 2.03.33-2.03c.06.02 5.97 2.02 13.83-.02l.49 4.12c-2.86.75-5.47.99-7.67.99M817.1 334.75c-4.53 0-7.47-1.01-7.65-1.07l1.32-3.77c.06.02 5.71 1.92 13.23-.05l1.01 3.87c-2.94.77-5.63 1.02-7.92 1.02ZM817.09 341.91c-4.33 0-7.12-.96-7.3-1.02l.65-4.07-.33 2.03.33-2.03c.06.02 5.97 2.02 13.83-.02l.49 4.12c-2.86.75-5.47.99-7.67.99"/><path fill="#faf3e9" d="M847.64 222.97c-.1-.05-14.16 7.04-18.87 9.04-1.94.78 7.08 8.28 7.19 8.97l9.62-8.46 2.26-3.83c.26-.11.06-2.47-.21-2.48-3.13-.09 2.44-2.1 0-3.24Z"/><path fill="#4e3b4d" d="m835.52 242.57-8.01-8.42c-.77-.79-.57-2.42.48-2.85 19.26-8.71 18.78-8.63 19.24-8.42 2.33.47-.25 2.62-.27 5.38-.01 1.32 1.36 3.92.49 4.98-1.24-.91-11 8.76-11.94 9.34Zm-6.36-9.6 6.48 6.82c1.86-1.63 9.79-8.7 11.61-10.02-.14-2.52.14-3.86.38-5.86-2.64 1.04-13.23 6.83-18.47 9.05Z"/><path fill="#fde888" d="M827.7 345.72c.68-.76-1.31-113.74.69-113.5 1.98.96 8.21 3.21 18.22-.15 1.59.61.55 112.25.37 113.51-.62.99-11.12 6.6-19.28.14"/><path fill="#4e3b4d" d="M837.14 349.71c-2.45-.21-9.08-.32-10.43-3.99V232.95c.12-4.56 7.82 3.06 19.59-1.84 1.05-.35 2 .61 1.96 1.7v112.08c-.91 2.98-4.48 4.15-11.12 4.82m-8.44-4.05c9.41 4.5 16.04.33 17.55-.79V233.23c-8.9 2.82-14.84 1.33-17.55.22z"/><path fill="#e4b95c" d="M836.86 243.41c-4.53 0-7.47-1.01-7.65-1.07l1.32-3.77c.06.02 5.71 1.92 13.23-.05l1.01 3.87c-2.94.77-5.63 1.02-7.92 1.02ZM836.85 250.57c-4.33 0-7.12-.96-7.3-1.02l.65-4.07-.33 2.03.33-2.03c.06.02 5.97 2.02 13.83-.02l.49 4.12c-2.86.75-5.47.99-7.67.99M836.86 334.75c-4.53 0-7.47-1.01-7.65-1.07l1.32-3.77c.06.02 5.71 1.92 13.23-.05l1.01 3.87c-2.94.77-5.63 1.02-7.92 1.02ZM836.85 341.91c-4.33 0-7.12-.96-7.3-1.02l.65-4.07-.33 2.03.33-2.03c.06.02 5.97 2.02 13.83-.02l.49 4.12c-2.86.75-5.47.99-7.67.99"/><path fill="#ec8f96" d="m847.26 69.68-.65 108.67-19.59 11.42h-6.87L825 76.46c.22.26 22.42-7.86 22.26-6.79Z"/><path fill="#4e3b4d" d="M827.29 190.77h-8.18l4.92-115.04 22.71-7.29c.35-.11.72-.05 1.01.17 1.49.67-.64 109.24-.14 110.32l-20.32 11.85Zm-6.1-2h5.55l18.87-11 .64-107.08-20.29 6.51z"/><path fill="#faf3e9" d="M834.59 67.44c-.1-.05-21.46 8.76-26.17 10.73-1.94.77 7.08 8.16 7.19 8.83l9.62-8.33 21.85-9.02c1.18-1.36-11.6-.81-12.49-2.2Z"/><path fill="#4e3b4d" d="m815.56 88.37-8-8.29c-.77-.78-.57-2.43.48-2.84 39.34-15.42 15.61-9.8 39.02-9.27 1.34 0 1.63 2.16.41 2.59l-21.7 8.96zm-6.34-9.45 6.47 6.7 9.03-7.82 19.26-7.95c-3.34-.18-7.32-.56-9.4-1.34-2.6 1.01-19.77 8.08-25.35 10.41Z"/><path fill="#fcbec1" d="M807.74 189.91c.07-.46-.13-110.98.06-111.38 2.67-.6 8.07 3.48 18.85-.52.33-.11.64.25.64.74-.28.66.54 110.61-.28 111.02-.62.98-11.09 6.5-19.28.14Z"/><path fill="#4e3b4d" d="M817.17 193.85c-2.45-.22-9.07-.29-10.43-3.94V78.89c.11-4.51 7.86 3 19.6-1.82 1.04-.34 1.99.61 1.96 1.69V189.1c-.92 2.97-4.49 4.09-11.12 4.75Zm-8.43-4.01c9.4 4.42 16.02.33 17.55-.78V79.18c-8.91 2.78-14.85 1.31-17.55.21z"/><path fill="#ec8f96" d="M816.9 89.19c-4.53 0-7.47-.99-7.65-1.06l1.32-3.72c.06.02 5.71 1.89 13.23-.05l1.01 3.81a32 32 0 0 1-7.92 1.01ZM816.88 96.24c-4.33 0-7.12-.94-7.3-1l.65-4.01-.33 2 .33-2c.06.02 5.97 1.99 13.83-.02l.49 4.05c-2.86.73-5.47.98-7.67.98M816.9 179.11c-4.53 0-7.47-.99-7.65-1.06l1.32-3.72c.06.02 5.71 1.89 13.23-.05l1.01 3.81a32 32 0 0 1-7.92 1.01ZM816.88 186.16c-4.33 0-7.12-.94-7.3-1l.65-4.01-.33 2 .33-2c.06.02 5.97 1.99 13.83-.02l.49 4.05c-2.86.73-5.47.98-7.67.98"/><path fill="#faf3e9" d="M847.64 110.59c-.1-.03-14.16 4.63-18.87 5.94-1.93.57 7.21 5.51 7.19 5.89 2.17-1.32 10.78-5.7 11.88-8.07.26-.07.06-1.62-.21-1.63-3.13-.06 2.44-1.38 0-2.13Z"/><path fill="#4e3b4d" d="M835.52 123.47c-.43-.63-9.27-5.55-8.43-6.64 2.11-2.06 19.25-7.95 20.16-8.2l.38 1.97c1.59.49-.65 1.75-.67 3.47 0 .86 1.35 2.6.49 3.27-1.06-.65-10.91 5.67-11.94 6.14Zm-6.36-6.31 6.48 4.48c1.89-1.08 9.82-5.73 11.61-6.58-.14-1.66.14-2.53.38-3.85-2.64.68-13.23 4.49-18.47 5.95"/><path fill="#fab7a1" d="M827.7 191.23c.07-.31-.13-74.07.06-74.32 2.79-.37 8.1 2.31 18.85-.35 1.85-.41.02 73.63.65 74.12-.83 1.4-10.41 4.74-19.56.54Z"/><path fill="#4e3b4d" d="M837.14 193.85c-2.53-.3-8.3.15-10.43-2.62v-74.08c.74-3.01 8.69 2.07 19.59-1.21.8-.22 1.96.24 1.96 1.12v73.63c-1.22 2.2-4.64 2.66-11.12 3.16m-8.44-2.66c9.41 2.96 16.04.22 17.55-.52v-73.34c-8.9 1.85-14.84.88-17.55.14z"/><path fill="#e68c87" d="M836.88 124.86c-4.01 0-6.62-.84-6.78-.89l1.17-3.12c.05.02 5.06 1.59 11.72-.04l.89 3.2c-2.61.63-4.99.85-7.01.85ZM836.85 128.72c-4.33 0-7.12-.63-7.3-.67l.65-2.67-.33 1.34.33-1.34c.06.01 5.97 1.33 13.83-.02l.49 2.71c-2.86.49-5.47.65-7.67.65M836.86 184.03c-4.53 0-7.47-.66-7.65-.71l1.32-2.48c.06.01 5.71 1.26 13.23-.03l1.01 2.54c-2.94.5-5.63.67-7.92.67ZM836.85 188.73c-4.33 0-7.12-.63-7.3-.67l.65-2.67-.33 1.34.33-1.34c.06.01 5.97 1.33 13.83-.02l.49 2.71c-2.86.49-5.47.65-7.67.65"/><path fill="#4e3b4d" d="M846.46 215.54h2v21h-2z"/><path fill="#faf3e9" d="m842.46 393.07.13-1.93 3.87-.77v-2.95c-7.76 1.98-17.57 4.5-23.68 6.07 4.16.67 10.74 1.05 19.68-.43Z"/><path fill="#faf3e9" d="m843.54 391.97 2.92-.58v-1.02l-3.87.77-.13 1.93c.34-.06.67-.11 1.01-.17l.06-.93Z"/><path fill="#faf3e9" d="M843.48 392.9c.97-.17 1.99-.38 2.99-.55v-.96l-2.92.58-.06.93Z"/><path fill="#4e3b4d" d="M820.49 393.06c5.62-1.45 17.15-4.41 25.98-6.66v-1.05c-6.61 1.67-15.98 4.08-28.07 7.23.7.06 1.22.32 2.1.49Z"/><path fill="#4e3b4d" d="M846.46 387.42v-1.03c-8.82 2.25-20.36 5.21-25.98 6.66 7.35.59 17.1-4.04 25.98-5.63M846.46 392.44v-.03l-.09.02s.06 0 .09.01"/><path fill="#4e3b4d" d="m846.37 392.43.09-.02v-.06l-.25.07c.05 0 .11 0 .16.01"/><path fill="#fde888" d="M835 399.98c2.18-.12 4.54-.34 7.04-.73l.22-3.18zM835.46 495.04c-4.16.58-15.75-.62-15.21-.81.25-.94.74-2.83.99-3.77.07.02 5.95 1.23 14.49.69l.18-2.62c-4.25.58-15.79-.5-15.59-.78.21-.97.63-2.94.84-3.91.07.02 6.19 1.28 15.02.66l2.37-34.56c-2.42 2-5.07 3.63-6.32 5.23-2.78-3.55-12.41-7.24-11.2-14.74 1.04-5.62 9.83-4.89 11.2-.05 1.01-2.52 3.97-4.69 7.24-3.84l1.83-26.68c-5.21 1.17-19.47.52-21.06-.24.25-.94.74-2.83.99-3.77.09.02 8.75 1.81 20.35.06l.18-2.59c-5.36 1.22-19.64.64-21.44-.17.21-.97.63-2.94.84-3.91.03 0 1.11.23 2.96.44l-5.67-3.65v102.44c9.32 2.76 16.9 2.17 21.82 1.09h-5.13l.31-4.52Z"/><path fill="#fde888" d="m844.34 394.96-2.92 42.46c3.76 2.62 1.95 7.99-.73 10.55l-2.5 36.36c1.29-.13 2.62-.29 3.99-.51l.63 3.95c-1.71.27-3.33.46-4.9.6l-.18 2.62c1.41-.13 2.88-.31 4.4-.55l.74 3.81c-1.89.3-3.68.5-5.41.65l-.18 2.67h8.73V394.54l-1.68.43ZM842.32 409.73c-.34.05-.67.09-1.01.14l-1.83 26.68c.34.08.67.19.98.32l1.87-27.14ZM836.91 488.47c-.34.03-.67.04-1.01.06l-.18 2.62c.33-.02.67-.05 1.01-.08z"/><path fill="#fde888" d="m836.46 494.98-1.01.06-.31 4.52c2.26.13 6.87 0 8.74-1h-7.67zM842.26 396.07l-.22 3.18c.05 0 .1-.01.15-.02l.6 3.73.51-7.45zM842.47 407.56l.3-4.38c-.34.05-.67.09-1.01.14l-.18 2.59c.19-.03.37-.05.56-.08l.33 1.72ZM839.62 449.03c-.35.32-.7.62-1.07.92l-2.37 34.56c.33-.02.67-.05 1.01-.08zM836.73 491.07c.34-.03.67-.05 1.01-.08l.18-2.62c-.33.03-.68.07-1.01.1zM839.62 449.03l-2.43 35.4 1.01-.09 2.5-36.36q-.51.54-1.08 1.05"/><path fill="#fde888" d="M846.02 497.56h-8.73l.18-2.67-1.01.09-.25 3.58c1.6-.06 8.63.37 9.8-.83v-.17ZM843.3 395.51c.03.22-.6 7.47-.48 7.67h-.05c-.13 1.44-.45 5.11.11 6.47-.19.03-.37.05-.56.08l-1.87 27.14c.34.15.66.34.97.55l2.92-42.46c-.06-.01-.98.53-1.04.54ZM830.61 400.08l8.38-4.49c-8.45.99-14.54.33-18.18-.41l7.52 4.85q1.08.045 2.28.06ZM826.29 399.89l-7.84-5.05v1.19c1.51.86 5.89 4.38 7.84 3.86M842.32 395.12l-.58.09-9.01 4.86c1.84.73 7.97-3.28 9.52-4zM846.02 394.53v-.08c-.57.12-1.11.21-1.66.31v.19l1.66-.43Z"/><path fill="#fde888" d="m842.26 396.07 1.04-.56.04-.55c-.35.06-.67.1-1.01.16zM843.3 395.51c.06-.02.98-.55 1.04-.54v-.19c-.32.06-.67.13-1 .19l-.04.55ZM832.73 400.06l9.01-4.86c-2.23-.41-9.23 3.92-11.14 4.87.68 0 1.39 0 2.13-.01M828.32 400.01c-1.53-.94-8.06-5.59-9.87-5.41v.24c1.44.74 8.08 5.94 9.87 5.17"/><path fill="#4e3b4d" d="M844.05 499.56c-3.84 1.18-15.98 4.26-26.59-.87V395.32c-.96-.91-.35-2.56.94-2.75-1-.1-1.96.67-1.94 1.69V498.7c5.6 6.41 25.77 3.28 30.01 1.02v-.15h-2.42Z"/><path fill="#4e3b4d" d="M844.05 499.56h2.42v-.94c-.49.22-1.31.57-2.42.94M841.5 394.23l.92-.49.05-.67c-10.55 2.17-15.86-.14-21.95 1.01 3.72.81 10.81 1.68 20.99.15ZM844.48 392.86l.99-.25-.98.19zM843.48 392.9c-.34.06-.68.12-1.01.17l-.05.67 1.04-.56z"/><path fill="#4e3b4d" d="M844.48 392.86v-.06c.43-.08 1.31-.27 1.73-.39-.93.09-1.84.35-2.73.48l-.02.28c.12-.11.86-.28 1.02-.32ZM817 393.93c-.09.52.09 1.02.45 1.39-.04-.72-.1-2.05 1.04-1.75.53-.14 1.21-.31 1.99-.52-1.42-.42-3.1-.95-3.49.87ZM846.46 393.46v-.07l-.18.05c.06 0 .12 0 .18.03ZM842.42 393.74l-.92.49c.3-.04.59-.09.89-.14l.02-.35Z"/><path fill="#4e3b4d" d="M822.78 393.5c-1.56-.41-2.99-.45-4.29.08 1.23.56 2.83.48 4.29-.08M845.47 392.61l-.98.25-.06.88c.67-.12 1.36-.26 2.04-.35v-.95s-.95.16-1 .17M843.41 393.93l.05-.75-1.04.56-.02.35c.34-.05.67-.1 1.01-.16"/><path fill="#4e3b4d" d="M844.48 392.86c-.17.05-.9.21-1.02.32l-.05.75c.33-.06.68-.13 1.02-.19l.06-.88ZM846.37 392.43c-.11-.05-.79.16-.9.18zM818.45 498.47V396.03c-.22-.15-.84-.5-1-.71v103.37c10.63 5.14 22.72 2.03 26.59.87-7.96.05-13.92 2.5-25.59-1.09M846.02 497.56s.44 0 .45-.02V394.41l-.45.12z"/><path fill="#4e3b4d" d="M846.46 498.56c-2.19-.23-3.85.43-6.19 1 1.49.16 5.17-.07 6.19-.94z"/><path fill="#4e3b4d" d="M846.42 497.56h-.4v.17c-.43.2-1.15.5-2.13.83h2.58v-1.02l-.04.02ZM838.98 395.58l2.52-1.35c-11.08 1.93-17.16-.05-21.98.11 4.51 2.32 10.05 1.93 19.46 1.24M842.34 394.89l-.59.32c.19-.03.38-.06.58-.09l.02-.23ZM818.45 396.03v-1.19c-.61-.25-.66-1.08.04-1.27-1.15-.3-1.08 1.03-1.04 1.75.16.2.79.56 1 .71M846.28 393.43l-1.87.48-.06.86c.55-.1 1.1-.2 1.66-.31v.08l.45-.12v-.96c-.06-.02-.12-.02-.18-.03"/><path fill="#4e3b4d" d="m843.34 394.96.04-.63-1.04.56-.02.23c.34-.05.67-.1 1.01-.16Z"/><path fill="#4e3b4d" d="m843.38 394.33-.04.63c.33-.06.68-.13 1.02-.19l.06-.86c-.28.04-.79.26-1.03.42ZM818.27 394.72l.18.12v-.24c.61.17 1.4.37 2.35.57l-1.29-.83c.31-.08.64-.17 1-.26-.84-.18-1.53-.36-2.02-.51-.57.15-.7.83-.23 1.15ZM842.34 394.89l.05-.8c-.72-.1-2.8 1.18-3.41 1.49 1.07-.2 2.37-.09 3.36-.7ZM844.42 393.74v.17l1.86-.48c-.63.01-1.24.23-1.86.31"/><path fill="#4e3b4d" d="M843.41 393.93c-.35.06-.67.11-1.01.16l-.05.8 1.04-.56.03-.4Z"/><path fill="#4e3b4d" d="m843.41 393.93-.03.4c.24-.16.75-.38 1.03-.42v-.17c-.33.06-.67.13-1 .19"/><path fill="#e4b95c" d="m835 399.98-5.67 3.06-5.2-3.35c-1.85-.21-2.93-.43-2.96-.44l-.42 1.96.42-1.96-.84 3.91c1.88.81 16.02 1.39 21.44.17l.28-4.07c-2.5.39-4.86.62-7.04.73Z"/><path fill="#e4b95c" d="m842.79 402.96-.6-3.73c-.05 0-.1.01-.15.02l-.28 4.07c.34-.05.67-.08 1.01-.14l.02-.23Z"/><path fill="#e4b95c" d="m842.79 402.96-.02.23h.05l-.04-.22ZM830.61 400.08c-.8 0-1.56-.03-2.28-.06l1.09.7z"/><path fill="#e4b95c" d="M835 399.98c-1.71-.34-4.25 1.05-5.63 1.9-1.19-.91-3.73-2.46-5.25-2.19l5.2 3.35 5.67-3.06Z"/><path fill="#e4b95c" d="M832.73 400.06c-1.18 0-2.36-.1-3.32.65l-1.09-.7q-1.095-.045-2.04-.12l3.08 1.99 3.36-1.81ZM821.23 405.86l-.49 1.86zl-.49 1.88v-.03l-.49 1.91c1.67.77 15.79 1.4 21.06.24l.27-3.95c-11.59 1.75-20.26-.04-20.35-.06Z"/><path fill="#e4b95c" d="M821.24 405.86s-.49 1.85-.49 1.88zM842.47 407.56l-.33-1.72c-.19.03-.37.05-.56.08l-.27 3.95c.34-.05.67-.09 1.01-.14zM842.47 407.56l-.15 2.17c.19-.03.37-.05.56-.08zM821.16 483.84l-.42 1.96zl-.84 3.91c-.19.28 11.32 1.36 15.59.78l.28-4.03c-8.83.62-14.95-.65-15.02-.66ZM842.82 487.77l-.63-3.95a70 70 0 0 1-3.99.51l-.28 4.04c1.57-.14 3.2-.33 4.9-.6"/><path fill="#e4b95c" d="M837.19 484.42c-.34.03-.68.06-1.01.08l-.28 4.03 1.01-.06.28-4.04Z"/><path fill="#e4b95c" d="M836.91 488.47c.33-.03.67-.07 1.01-.1l.28-4.04-1.01.09-.28 4.04ZM821.24 490.46s-.49 1.85-.49 1.88z"/><path fill="#e4b95c" d="m821.23 490.46-.49 1.86zl-.49 1.88v-.03l-.49 1.91c-.51.19 11.03 1.39 15.21.81l.27-3.89c-8.54.54-14.42-.67-14.49-.69ZM842.14 490.43c-1.52.24-2.99.42-4.4.55l-.27 3.91c1.72-.15 3.52-.35 5.41-.65z"/><path fill="#e4b95c" d="m835.72 491.15-.27 3.89c.34-.02.66-.03 1.01-.06l.27-3.91c-.34.03-.68.06-1.01.08"/><path fill="#e4b95c" d="m836.73 491.07-.27 3.91c.33-.02.67-.06 1.01-.09l.27-3.91c-.34.03-.67.05-1.01.08ZM838.97 436.44c-3.23-.47-5.73 1.56-6.74 3.95-1.38-4.85-10.17-5.57-11.2.05-1.21 7.5 8.42 11.19 11.2 14.74 1.26-1.6 3.9-3.24 6.32-5.23l.92-13.4c-.17-.04-.33-.09-.51-.11ZM843.44 440.44c-.19-1.21-.96-2.28-2.02-3.02l-.73 10.55c1.92-2.04 3.23-4.47 2.74-7.53ZM840.46 436.87c-.31-.14-.64-.24-.98-.32l-.92 13.4c.36-.3.72-.61 1.07-.92l.84-12.15Z"/><path fill="#e4b95c" d="M839.62 449.03q.555-.51 1.08-1.05l.73-10.55c-.3-.21-.62-.4-.97-.55z"/><path fill="#4e3b4d" d="M848.46 368.03h-2v17.3c.7-.18 1.36-.34 2-.5zM846.46 499.71v12.66h2v-13.43c-.42.15-1.61.57-2 .77M848 394.02c.03.08 0 102.87.01 102.96l.45-.16V393.9z"/><path fill="#4e3b4d" d="M848 498.05c-.05.62-.43 1.18-1.02 1.43l1.49-.54v-1.06z"/><path fill="#4e3b4d" d="M848.02 496.98c0 .09 0 1.02-.02 1.07l.47-.17v-1.06zM848.46 389.97v-3.06c-.65.16-1.32.34-2 .51v2.95z"/><path fill="#4e3b4d" d="M848.46 390.99v-1.02l-2 .4v1.02z"/><path fill="#4e3b4d" d="M846.46 391.39v.96l2-.51v-.85zM848.46 385.88v-1.05c-.64.16-1.3.33-2 .5v1.05c.68-.17 1.35-.34 2-.51ZM848 394.02l.46-.12v-1.03l-.82.21c.22.27.34.6.36.94"/><path fill="#4e3b4d" d="M848.46 386.91v-1.03c-.65.16-1.32.34-2 .51v1.03c.68-.17 1.35-.34 2-.51M846.46 392.44c.45.05.89.28 1.18.64l.82-.21v-.86l-2 .4z"/><path fill="#4e3b4d" d="m846.46 392.41 2-.4v-.17l-2 .51zM846.77 499.56h-.31v.15c.2-.09.38-.16.51-.23l-.2.07ZM848 394.02l-.99.25v103.07l1-.36s.02-102.92-.01-102.96"/><path fill="#4e3b4d" d="M846.46 498.62v.94c.82.06 1.49-.75 1.53-1.51-.07.03-1.51.54-1.53.57"/><path fill="#4e3b4d" d="m848.02 496.98-1 .36c0 .42.08 1.02-.42 1.22l1.4-.51s.02-.99.02-1.07M846.46 393.38v.07c.38.1.6.44.55.82l.99-.25c-.02-.34-.14-.67-.36-.94z"/><path fill="#4e3b4d" d="M847.64 393.08c-.28-.36-.73-.59-1.18-.64v.95l1.18-.3ZM846.46 394.42v103.12l.56-.2V394.27zM846.46 498.62s.1-.04.13-.06h-.13z"/><path fill="#4e3b4d" d="M846.46 498.56c.62 0 .57-.79.55-1.22l-.55.2zM846.46 393.46v.96l.55-.14c.05-.38-.17-.71-.55-.82M732.24 331.31h13.64v2h-13.64zM716.92 486.03h13.9v2h-13.9zM665.74 486.03h7.49v2h-7.49zM750.613 176.71l14.278-.219.03 2-14.277.22z"/><path fill="#fbb9d1" d="m688.27 549.14 12.19-1.31 23.37 93.71s-9.78 2.86-12.95 2.14l-22.6-94.54Z"/><path fill="#e193ac" d="M758.81 626.28c.29.66-34.07 14.75-34.24 15.09-1.12.24-21.97-87.68-24.03-93.52l-9.2.99c-2.2-.97 31.89-11.28 31.77-11.74l12.5-.58c1.37 4.6 23.15 89.62 23.2 89.75Z"/><path fill="#4e3b4d" d="M712.14 644.72c-.82.01-1.41-.1-2.1-.27-.11-.46-22.86-95.61-22.98-96.13l14.18-1.52 23.78 95.37c-1.86.51-8.02 2.44-12.87 2.56Zm-.44-1.88c2.54.17 8.05-1.16 10.94-1.95l-22.95-92.04-10.2 1.1z"/><path fill="#efefef" d="m691.3 548.51 10.3-.63 32.24-10.8h-11.2l-31.08 11.16"/><path fill="#4e3b4d" d="M724.44 642.34c-3.16-.58-20.96-83.43-24.63-93.46l-8.34.9c-1.49.23-2.09-1.93-.62-2.41.58-.11 31.65-11.21 32.24-11.2l12.48-.58c3.34 3.51 22.49 86.57 24.22 90.47 1.24 1.88-34.38 15.59-35.34 16.28Zm-23.95-95.42c3.62 4.46 21.35 84.09 24.41 93.28l32.81-14.2c-1.75-6.83-20.64-80.4-22.85-88.5l-11.59.54-26.58 9.29 3.81-.41Zm22.69-8.88h-.02zm.21-.04h-.04z"/><path fill="#e88ba3" d="m700.16 548.24 35.04-11.69"/><path fill="#4e3b4d" d="m700.49 549.13-.67-1.77 35.04-11.7.67 1.77z"/><path fill="#e193ac" d="M699.82 557.91c.07 4.76-7.4 4.76-7.33 0-.07-4.76 7.4-4.76 7.33 0M719.26 635.57c.07 4.76-7.4 4.76-7.33 0-.07-4.76 7.4-4.76 7.33 0"/><path fill="#4e3b4d" d="M846.26 90.15h2.21v50.77h-2.21z"/><path fill="#f4eeed" d="m836.3 625.26.23.54c-.16.01-1.38-.06-1.47.1-.45-.15-2.86-.25-3.23.13-2.85 5.06-1.06 11.64-.21 14.13l14.75-7.66v-12.46l-10.07 5.23Z"/><path fill="#4e3b4d" d="m831.12 642.66.2-.1h-.45zM831.96 641.1c.02.06.37.86.4.92l14-7.27v-1.13z"/><path fill="#4e3b4d" d="M831.61 640.15c.18.51.3.83.35.95l14.4-7.48v-1.13z"/><path fill="#fee694" d="m820.34 626.25-5.76-.03-80.85-.42c-.8 1.01-3.33 5.14-.82 14.76h93.14l-7.82-3.25 2.1-11.06Z"/><path fill="#fee694" d="m829.45 626.3-7.07-.04-1.87 9.83 8.88 3.69c-.91-3-2.03-8.57.07-13.48Z"/><path fill="#fee694" d="M821.36 626.25h-1.02l-2.1 11.06c1.91.72 8.33 3.95 10.42 3.25l-9.29-3.86z"/><path fill="#fee694" d="M822.38 626.26h-1.02l-1.99 10.44c.42.11 10.08 4.44 10.26 3.86-.08-.23-.16-.5-.25-.78l-8.88-3.69 1.87-9.83Z"/><path fill="#4e3b4d" d="m832.59 642.56-.23-.54-1.04.54zM732.15 641.56c-3.56-12.7 1.14-16.76 1.14-16.76h1.21c-.16-.31-.11-.69 0-.99h-1.58c-.62.58-5.37 4.46-1.74 18.03l.2.73h99.48l-2.41-1h-96.31ZM831.83 626.03c-.36.26-.83.3-1.26.28-2.42 5.17-.84 11.36.04 13.98l.42.18.59-.31c-.85-2.48-2.64-9.06.21-14.13"/><path fill="#4e3b4d" d="M831.96 641.1c-.55.62-2.77.46-3.5.46.31.1 2.55 1.16 2.85 1l1.04-.54c-.03-.07-.37-.86-.4-.92Z"/><path fill="#4e3b4d" d="m831.02 640.46-.42-.18c.27.8.47 1.28.47 1.28l.89-.46c-.05-.11-.17-.44-.35-.95zM732.92 640.56c-2.51-9.62.02-13.75.82-14.76l80.85.42c-.57-.01-78.74-.39-79.26-.42l-.04-.13a1.45 1.45 0 0 1-.79-.87h-1.21s-4.7 4.06-1.14 16.76h96.31l-2.41-1h-93.14ZM830.56 626.3h-1.11c-2.1 4.9-.97 10.47-.07 13.47l1.22.5c-.88-2.62-2.46-8.81-.04-13.98Z"/><path fill="#4e3b4d" d="m826.06 640.56 2.4 1h2.61l-2.41-1z"/><path fill="#4e3b4d" d="M829.38 639.78c.09.28.17.55.25.78h-.97l2.41 1s-.2-.48-.47-1.28zM734.71 623.42q-.135.18-.21.39h.3c-.03-.13-.07-.26-.1-.39ZM831.93 625.81c-.04.07-.07.14-.11.21.13-.08.27-.15.4-.23h-.28v.02ZM820.34 626.25l-5.76-.03zM820.34 626.25h1.02z"/><path fill="#4e3b4d" d="M734.43 624.58c.01.08.06.14.08.22h.55c-.09-.34-.17-.67-.25-1h-.3c-.09.24-.13.5-.08.78M831.94 625.8h-1.12c-.09.17-.18.33-.26.5.43.03.9-.02 1.26-.28.04-.08.07-.15.12-.23ZM735.29 625.67c-.05-.19-.19-.68-.23-.86h-.55c.14.39.42.7.79.86ZM820.43 625.8h-84.61c.05.04 78.7.41 78.76.42l5.76.03zM822.46 625.8l-.09.46 7.07.04h1.11c.08-.17.17-.34.26-.5h-8.36ZM821.36 626.25l.09-.45h-1.02l-.09.45z"/><path fill="#4e3b4d" d="M822.46 625.8h-1.01l-.09.45 1.02.01z"/><path fill="#f4eeed" d="M835.09 610.72c4.24 0 8.07 0 11.27-.03v-7.45c-3.41 1.91-7.07 3.99-10.6 6.02-.27.47-.49.96-.68 1.45ZM834.32 617.94l12.04-4.07v-1.18c-3.92.01-7.4.03-11.86.03-.36 1.77-.35 3.58-.18 5.22M835.08 621.85c3.55-2.03 6.53-3.71 9.01-5.1l-9.46 3.19c.14.7.29 1.34.45 1.91M834.46 618.95l11.9-4.02v-1.06l-12.04 4.07c.04.35.08.68.13 1.01Z"/><path fill="#f4eeed" d="M834.63 619.95c1.85-.66 10.32-3.25 11.73-4.46v-.56l-11.9 4.02c.05.34.11.67.17 1M834.74 611.72c4.35 0 8.3 0 11.62-.03v-1c-3.21.02-7.03.02-11.27.03-.13.33-.25.66-.34 1ZM835.55 623.39l10.81-5.61v-1.11c-3.84 2.12-7.98 4.47-10.99 6.18q.09.3.18.54"/><path fill="#f4eeed" d="M834.5 612.72c4.46 0 7.94-.01 11.86-.03v-1c-3.31.02-7.27.03-11.62.03-.09.33-.18.67-.25 1ZM844.09 616.75c-2.49 1.39-5.46 3.07-9.01 5.1.1.36.2.7.29.99 3.01-1.71 7.15-4.06 10.99-6.18v-.68z"/><path fill="#f4eeed" d="M846.36 615.99v-.49c-.71.39-1.47.81-2.27 1.26z"/><path fill="#4e3b4d" d="m835.06 625.9.19-.1h-.44zM835.9 624.33c.02.06.37.86.4.92l10.07-5.23v-1.13l-10.46 5.43Z"/><path fill="#4e3b4d" d="m835.9 624.33 10.46-5.43v-1.09a926 926 0 0 0-10.66 6c.1.27.17.45.2.52"/><path fill="#4e3b4d" d="M835.7 623.81c3.75-2.14 7.44-4.21 10.66-6v-.04l-10.81 5.61c.06.16.1.3.15.42Z"/><path fill="#fcb5a8" d="M767.18 610.46c12.88.08 36.96.21 56.87.24l.23-1.22-84.45-.44-2.16-.01c-.76.96-3.08 4.76-1.14 13.41.68-.15 29.93-12.04 30.65-11.98"/><path fill="#fcb5a8" d="m821.07 622.42 3.09-1.04-1.98-.82 1.49-7.84c-16.67-.02-56.07-.23-56.41-.24l-28.71 11.33h82.26l.26-1.38ZM826.96 622.54l-3.72 1.26h6.75z"/><path fill="#fcb5a8" d="m825.56 621.96-1.4-.59-3.09 1.05-.26 1.38h1.02l.12-.62z"/><path fill="#fcb5a8" d="m826.96 622.54-1.4-.58-3.61 1.22-.12.62c1.01.3 4.17-.94 5.13-1.26M767.16 611.46c1.88.01 31.93.2 56.69.24l.19-1c-20.28.07-44.15-.36-57.43-.14l-30.08 11.88c.07.32.15.65.23.98.2-.04 30.21-12 30.4-11.96"/><path fill="#fcb5a8" d="m813.01 612.68 10.66.03.19-1c-24.98-.01-54.74-.3-56.88-.21l-30.22 11.93c.03.13.05.24.09.37h1.7l28.71-11.33c1.69 0 23.95.15 45.75.22ZM833.39 609.53l-7.07-.04-.23 1.21h6.87c.13-.4.27-.79.44-1.18ZM832.46 612.72h-6.75l-1.26 6.62 2.59 1.08 5.34-1.8c-.23-1.82-.27-3.85.08-5.88ZM833.28 622.88c-.2-.66-.4-1.43-.57-2.29l-2.87.97 3.33 1.38s.08-.04.12-.07Z"/><path fill="#fcb5a8" d="m832.37 618.6-5.34 1.8 1.4.58 4.09-1.38c-.05-.33-.11-.66-.15-1.01Z"/><path fill="#fcb5a8" d="m832.52 619.6-4.09 1.38 1.4.58 2.87-.97c-.07-.32-.13-.65-.19-.99ZM832.67 611.72c.08-.34.18-.67.28-1h-6.87l-.19 1zM832.67 611.72h-6.78l-.19 1h6.75c.06-.33.13-.67.21-1ZM833.17 622.95l.15.06s-.03-.09-.04-.13c-.04.02-.08.04-.12.07ZM825.3 609.49h-1.02l-.23 1.21h1.02l.23-1.22ZM823.31 619.94l1.37-7.23h-1.02l-1.49 7.84 1.98.82 1.44-.49-2.29-.95ZM831.69 623.8c.13-.07.26-.15.38-.22l-3.67-1.52-1.44.49c1.09.5 3.49 1.57 4.73 1.26ZM827 621.47l-1.4-.58-1.44.48 1.4.59z"/><path fill="#fcb5a8" d="m827 621.47-1.44.49 1.4.58 1.44-.49zM825.07 610.71h-1.02l-.19 1h1.02zM824.87 611.71h-1.02l-.19 1h1.02zM832.07 623.58c-.13.07-.26.15-.38.22h.91zM826.08 610.71l.23-1.21h-1.02l-.23 1.21zM824.44 619.33l1.26-6.62h-1.02l-1.37 7.23 2.29.95 1.44-.49-2.59-1.08ZM829.84 621.57l-1.44.49 3.67 1.52c.37-.21.74-.42 1.1-.63z"/><path fill="#fcb5a8" d="m827.03 620.4-1.43.49 1.4.58 1.44-.49z"/><path fill="#fcb5a8" d="m829.84 621.57-1.4-.59-1.44.49 1.4.58zM826.08 610.71h-1.02l-.19 1h1.02zM825.89 611.71h-1.02l-.19 1h1.02zM833.57 623.8c-.08-.23-.16-.5-.25-.78l-.15-.06c-.36.21-.73.42-1.1.63.32.24 1.12.24 1.5.22Z"/><path fill="#4e3b4d" d="m735.35 622.91.24-.09c-2.55-11.13 1.64-14.78 1.64-14.78h1.21c-.16-.31-.11-.69 0-.99h-1.58c-.54.55-4.98 4.12-2.15 16.38.16-.22.37-.4.64-.51ZM836.53 625.8l-.23-.54-1.05.54zM832.22 625.8h2.59l-1.5-.62c-.36.21-.72.42-1.09.62M735.33 625.8h.49c-.19-.01-.37-.05-.53-.13z"/><path fill="#4e3b4d" d="m735.79 623.81.04-.02c-.08-.33-.17-.66-.25-.98-.34.11-.68.31-.88.6.03.13.07.26.1.39h.99ZM832.51 624.84l-.57.95c.51.03.91-.42 1.37-.62zM735.72 623.84l.08-.03h-.99c.08.33.16.65.25 1h.84c-.55 0-.7-.76-.18-.97"/><path fill="#4e3b4d" d="M831.96 624.8c-.52.26-.64.45-1.02.51h.14c-.1.16-.16.33-.25.49h1.12l.57-.95c-.07-.07-.46-.04-.55-.05ZM735.29 625.67c.39.37 84.65 0 85.14.13l.1-.55-84.63-.44h-.84c.04.18.18.67.23.86"/><path fill="#4e3b4d" d="m830.94 625.3-8.37-.04-.1.54h8.36c.09-.16.16-.33.25-.49h-.14ZM821.55 625.25h-1.02l-.1.55h1.02zM822.57 625.26l-1.02-.01-.1.55h1.01zM735.84 623.79l-.04.02h.05v-.02ZM735.9 624.81l84.63.44.09-.45h-84.53c-.1-.34-.16-.66-.25-.99-.61.07-.57 1 .06 1"/><path fill="#4e3b4d" d="M831.19 625.24c.14-.08.41-.24.77-.44h-9.3l-.09.46c.33-.07 8.31.18 8.62-.02M821.64 624.8h-1.02l-.09.45h1.02z"/><path fill="#4e3b4d" d="M822.65 624.8h-1.01l-.09.45 1.02.01zM830.94 625.3l-8.37-.04zM821.55 625.25h-1.02zM834.87 609.54h-.37q-.27.585-.48 1.17h1.06c.19-.49.41-.98.68-1.45-.27.17-.57.28-.89.28M833.48 612.72c-.35 1.9-.33 3.82-.12 5.55l.97-.33c-.18-1.64-.18-3.45.18-5.22h-1.02ZM833.67 620.27q.24 1.17.51 2.1c.3-.17.6-.35.9-.51-.16-.57-.31-1.21-.45-1.91zM834.46 618.95c-.05-.33-.1-.67-.13-1.01l-.97.33c.04.34.08.68.14 1.01l.97-.33Z"/><path fill="#4e3b4d" d="m833.67 620.27.96-.32c-.06-.32-.12-.65-.17-1l-.97.33c.05.34.12.67.18.99M833.72 611.72h1.03c.1-.34.22-.67.34-1h-1.06c-.12.33-.22.66-.31 1M834.54 623.52l.42.18.59-.31c-.06-.17-.12-.34-.18-.54-.31.18-.6.34-.89.51.02.06.04.11.06.16M833.48 612.72h1.02c.07-.34.15-.67.25-1h-1.03c-.09.33-.17.67-.24 1M834.48 623.35c.28-.16.58-.33.89-.51-.09-.29-.19-.63-.29-.99l-.9.51c.1.37.21.69.3.98ZM835.9 624.33l-.89.46c-.52-.05-1.29 0-1.7.38 1.26.53 1.71.96 2.99.08-.03-.07-.37-.86-.4-.92"/><path fill="#4e3b4d" d="m832.51 624.84.8.33c.22-.13.44-.25.66-.38h-1.43z"/><path fill="#4e3b4d" d="m832.4 624.8.11.04.03-.04zM834.82 624.31c.12.31.19.48.19.48l.89-.46c-.03-.08-.1-.25-.2-.52-.29.17-.59.33-.88.5"/><path fill="#4e3b4d" d="M834.54 623.52c.11.32.2.59.28.79.29-.17.59-.34.88-.5-.05-.12-.09-.26-.15-.42l-.59.31zM737.67 609.04h2.16c-.65 0-1.18-.4-1.39-1h-1.21s-4.19 3.64-1.64 14.77l.94-.37c-1.94-8.65.38-12.45 1.14-13.41ZM738.55 623.8l-.07.02 82.24.43.09-.45zM830.98 624.21c-.79-.66-7.2-.49-8.16-.27l-.06.32 8.05.04c.06-.03.11-.06.17-.1ZM821.83 623.8h-1.02l-.09.45 1.02.01z"/><path fill="#4e3b4d" d="m822.82 623.94.42-.14h-1.41l-.09.46h1.02zM736.53 622.44l-.94.37c.07.32.16.65.25.98l.93-.37c-.08-.33-.16-.66-.23-.98ZM831.96 624.8h.44l-.26-.11-.19.11Z"/><path fill="#4e3b4d" d="m820.72 624.25-82.24-.43.07-.03h-1.7c-.03-.13-.06-.24-.09-.37l-.93.37v.02l84.88.44ZM830.98 624.21c-.06.03-.11.06-.17.1l-8.05-.04 8.46.04z"/><path fill="#4e3b4d" d="M735.84 623.81c.08.33.15.64.25.99h84.53l.1-.55zM832.14 624.69c-.05-.61-8.89-.38-9.39-.43l-.1.54c.24-.11 9.31.21 9.49-.11"/><path fill="#4e3b4d" d="m821.74 624.26-1.02-.01-.1.55h1.02z"/><path fill="#4e3b4d" d="M822.76 624.26h-1.02l-.1.54h1.01zM834.02 610.72c.14-.4.29-.79.48-1.18h-1.11c-.17.38-.31.78-.44 1.18zM832.37 618.6l.98-.33c-.2-1.73-.23-3.65.12-5.55h-1.02c-.36 2.03-.31 4.07-.08 5.88M833.28 622.88l.9-.51c-.17-.61-.35-1.32-.51-2.1l-.96.33c.18.86.38 1.63.57 2.29Z"/><path fill="#4e3b4d" d="m832.52 619.6.97-.33c-.05-.33-.1-.67-.14-1.01l-.98.33c.04.34.09.68.15 1.01M832.52 619.6c.06.34.12.67.19.99l.96-.33c-.06-.32-.13-.65-.18-.99zM833.72 611.72c.09-.34.19-.67.31-1h-1.07c-.11.33-.2.67-.28 1h1.05ZM834.54 623.52c-.02-.06-.04-.11-.06-.16-.05.03-.1.06-.14.08zM833.48 612.72c.06-.34.15-.67.24-1h-1.05c-.08.33-.15.67-.21 1zM833.32 623.01l1.02.42s.1-.05.14-.08c-.1-.29-.2-.62-.3-.98-.3.17-.59.34-.9.51.01.04.03.09.04.13M833.97 624.8h1.04l-.6-.25c-.15.08-.29.17-.44.25M829.99 623.8l.98.41c.24-.14.47-.27.71-.41h-1.7Z"/><path fill="#4e3b4d" d="M833.24 624.06c-.15.09-.3.17-.44.25h.02l-.29.48c.39-.01 1.58.11 1.87-.25l-1.17-.48Z"/><path fill="#4e3b4d" d="M832.4 624.8h.14l.29-.48h-.02c-.24.14-.46.26-.66.38l.26.11ZM831.69 623.8c-.24.14-.47.27-.71.41.11.15 1.65.1 1.82.11.14-.08.29-.17.44-.25-.35-.24-1.14-.31-1.55-.27"/><path fill="#4e3b4d" d="M832.14 624.69c.2-.11.41-.24.66-.38h-1.58l.93.38ZM834.41 624.55l.6.25s-.08-.18-.19-.48c-.14.08-.27.16-.41.23"/><path fill="#4e3b4d" d="M834.34 623.44c-.4.23-.76.43-1.1.63l1.17.48c.14-.08.27-.16.41-.23-.08-.2-.17-.48-.28-.79l-.2-.08ZM833.32 623.01c.09.28.17.55.25.78h-.97l.64.27c.34-.19.7-.4 1.1-.63z"/><path fill="#de9788" d="m771.19 595.7-28.77 11.36c18.23.09 64.62.34 82.24.43h1.02l1.02.01 8.05.04c4.66-2.68 8.48-4.85 11.62-6.61v-4.98c-16.46.08-65.61-.17-75.17-.24Z"/><path fill="#fcb5a8" d="m742.42 607.06 54.76.28s-54.76-.29-54.76-.28"/><path fill="#4e3b4d" d="M770.92 594.74c2.6-.09 50.63.31 75.44.21v-1c-17.46.16-48.73-.29-75.82-.14l-31.26 12.34c-.42.17-.7.5-.84.89h1.29zM836.76 607.55c-.08.14-.96 1.61-1 1.71 3.53-2.02 7.19-4.11 10.6-6.02v-1.15c-3.86 2.17-7.55 4.27-9.63 5.45h.02ZM824.28 609.49l-84.45-.44zM738.36 607.82c.01.08.06.14.08.22h1.39c-.6 0-.68-.85-.1-.99h-1.29c-.09.24-.13.5-.08.78Z"/><path fill="#4e3b4d" d="M834.87 608.54h.14c-.19.33-.35.66-.51 1 .43.03.9-.02 1.26-.28.03-.09.92-1.59 1-1.71h-.02c-1.03.54-1.31.86-1.86.99ZM739.83 609.05l84.45.44.19-1-84.63-.44h-1.39c.21.59.74.99 1.39 1Z"/><path fill="#4e3b4d" d="M833.39 609.53h1.11c.16-.33.32-.67.51-.99l-8.51-.04-.19 1 7.07.04ZM825.49 608.49h-1.02l-.19 1h1.02z"/><path fill="#4e3b4d" d="m826.5 608.5-1.01-.01-.19 1 1.01.01zM771.19 595.7c9.57.07 58.69.32 75.17.24v-1c-24.82.11-72.84-.29-75.44-.21l-31.19 12.31c-.08 1.82 30.69-11.22 31.46-11.34M797.18 607.35l27.48.14zM826.69 607.5l10.04.05c2.07-1.19 5.76-3.29 9.63-5.45v-1.17c-3.14 1.76-6.96 3.94-11.62 6.61z"/><path fill="#4e3b4d" d="M824.66 607.49c-17.42-.09-65.59-.78-83.61-.87l-3.02.58c-8.93 2.61 89.11.92 86.44 1.28l.19-1ZM835.12 608.48c.23-.13.8-.46 1.61-.92l-10.04-.05-.19 1c.33-.07 8.31.18 8.62-.02Zm-.5-.87"/><path fill="#4e3b4d" d="M825.68 607.49h-1.02l-.19 1h1.02zM826.69 607.5l-1.01-.01-.19 1 1.01.01zM834.87 608.54l-8.37-.04zM825.49 608.49h-1.02zM848.57 530.37h-2.21v63.58h2.21v-63.57ZM846.36 620.03v12.46l2.21-1.14v-12.47zM846.36 633.62v1.13l2.21-1.15v-1.13z"/><path fill="#4e3b4d" d="M846.36 632.49v1.13l2.21-1.15v-1.12zM846.36 610.69c.77 0 1.51 0 2.21-.01v-8.67c-.72.4-1.46.81-2.21 1.23zM848.57 616.63v-.03c-.36.19-.72.4-1.09.6zM846.36 613.87l2.21-.74v-.45h-2.21v1.18ZM848.57 614.19v-1.06l-2.21.74v1.06z"/><path fill="#4e3b4d" d="M846.36 614.93v.56c.79-.44 1.53-.84 2.21-1.21v-.1l-2.21.74ZM846.36 611.69c.77 0 1.51 0 2.21-.01v-1c-.7 0-1.43 0-2.21.01zM846.36 616.67v1.11c.65-.33 1.58-.83 2.21-1.18v-1.14c-.72.39-1.45.8-2.21 1.21"/><path fill="#4e3b4d" d="M848.57 612.68v-1.01c-.7 0-1.43.01-2.21.01v1zM846.36 616.67c.75-.42 1.49-.82 2.21-1.21v-.21l-2.21.74z"/><path fill="#4e3b4d" d="m846.36 615.99 2.21-.74v-.96c-.68.37-1.41.77-2.21 1.21zM846.36 620.03l2.21-1.15v-1.12l-2.21 1.14z"/><path fill="#4e3b4d" d="M846.36 617.81v1.09l2.21-1.14v-1.13c-.67.34-1.55.81-2.21 1.18"/><path fill="#4e3b4d" d="m847.47 617.2-1.11.58v.04c.38-.21.75-.41 1.11-.61ZM848.57 597.7v-1.76h-2.21v2.5zM848.04 599.99l-1.68.57v.37c.58-.33 1.14-.64 1.68-.94"/><path fill="#4e3b4d" d="M848.57 598.75v-1.05l-2.21.74v1.06zM846.36 599.5v1.06c.43-.15 1.86-.58 2.21-.86v-.94zM848.57 594.94v-1h-2.21v1zM846.36 603.24c.75-.42 1.49-.83 2.21-1.23v-1.14c-.74.41-1.47.82-2.21 1.23v1.15ZM847.38 595.94h1.18v-1h-2.21v1h1.02Z"/><path fill="#4e3b4d" d="M846.36 600.93v1.17c.73-.41 1.47-.82 2.21-1.23v-1.06c-.79.23-1.44.72-2.21 1.12"/><path fill="#4e3b4d" d="M848.57 599.81v-.12c-.17.1-.35.19-.52.29l.52-.18Z"/><path fill="#eb8c92" d="M742.42 609.05h5.74v14.75h-5.74z"/><path fill="#e4b95c" d="M737.57 625.8h2.68v14.75h-2.68zM741.91 625.8h2.68v14.75h-2.68zM817.77 626.25h2.68v14.3h-2.68zM822.11 626.25h2.68v14.3h-2.68z"/><path fill="#eb8c92" d="M817.66 609.49h5.74v14.31h-5.74zM800.47 619.61h-36.94c-1.34 0-2.28-1.2-2.14-2.49-2.33-4.45 38.11-1.21 39.07-2.14 2.83-.04 2.84 4.67 0 4.63Z"/><path fill="#e4b95c" d="M798.82 635.72h-36.94c-1.34 0-2.28-1.2-2.14-2.49-2.33-4.45 38.11-1.21 39.07-2.14 2.83-.04 2.84 4.67 0 4.63Z"/><path fill="#72a8d2" d="M599.5 621.04a2.69 2.69 0 0 1-2.69-2.69v-40.37a2.69 2.69 0 0 1 5.38 0v40.37c0 1.48-1.2 2.69-2.69 2.69M624.66 621.04a2.69 2.69 0 0 1-2.69-2.69v-40.37a2.69 2.69 0 0 1 5.38 0v40.37c0 1.48-1.2 2.69-2.69 2.69M648.8 621.04a2.69 2.69 0 0 1-2.69-2.69v-40.37a2.69 2.69 0 0 1 5.38 0v40.37c0 1.48-1.2 2.69-2.69 2.69M674.97 621.04a2.69 2.69 0 0 1-2.69-2.69v-40.37a2.69 2.69 0 0 1 5.38 0v40.37c0 1.48-1.2 2.69-2.69 2.69"/><path fill="#88c7b7" d="M599.48 471.81c-1.98 0-3.59-1.61-3.59-3.59v-37.57c0-1.98 1.61-3.59 3.59-3.59s3.59 1.61 3.59 3.59v37.57c0 1.98-1.61 3.59-3.59 3.59"/><path fill="#fccfb5" d="M270.62 404.95s19.17-34.79 24.25-51.56c3.82-24.04 52.84-55.06 69.71-55.24l10.29 10.67s-28.32 5.84-43.43 25.02c0 0 36.32-16.38 42.54-15.49l5.59 41.78c-59.07 16.03-24.65 12.02-52.95 42.29-3.81 2.92-15.37 6.6-21.33 13.84-5.97 7.24-18.67 20.19-18.67 20.19l-16-31.49Z"/><path fill="#4e3b4d" d="m286.36 438.14-16.87-33.21c.54-1 19.16-34.78 24.43-51.83 3.6-23.42 52.03-55.66 71.04-56.01l11.9 12.34c-2.51.6-24.88 4.7-41.72 21.67 10.57-4.5 33.78-14.87 39.74-13.64l5.81 43.4c-59.17 15.32-25.71 13.81-53.45 42.34-6.32 4.16-15.92 7.17-21.17 13.68-6.6 7.95-18.93 20.45-19.7 21.25Zm-14.61-33.17 15.13 29.78c3.08-3.17 12.72-13.17 17.64-19.13 5.6-6.86 15.06-9.86 21.5-14 27.17-28.45-5.98-26.55 52.45-42.23l-5.36-40.07c-8.08.73-34.22 12.26-44.98 17.12 11-17.13 38.15-27 44.81-28.17l-8.71-9.03c-19.47 1.16-65.18 32.62-68.4 54.46-4.73 15.61-21.79 47.08-24.08 51.28Z"/><path fill="#fccfb5" d="M451.22 461.78c19.27-27.53 44.93-74.62 14.09-116.95-4.95-4.95-25.33-23.24-25.33-23.24l-19.05 34.1 8.76 66.1-15.43 48 36.95-8Z"/><path fill="#f4c2aa" d="m466.49 348.23-5.34 30.19-5.71 1.43.95-45.14z"/><path fill="#4e3b4d" d="m412.79 471.12 15.89-49.44-8.78-66.2L439.72 320l.93.84c.2.18 20.46 18.36 25.37 23.27 31.37 42.69 5.49 90.78-14.2 118.55l-39.03 8.45Zm9.18-115.24 8.75 65.99-14.97 46.56 34.87-7.55c20.5-29.63 43.49-74.13 13.99-115.35-4.27-4.27-20.31-18.73-24.36-22.36l-18.27 32.71Z"/><path fill="#739abf" d="M64.98 671c-40.52 43.1 6.34 193.53 15 274-1 6-18 77-16 104h91s8-75 25-106c4.48 6.29-7.59 103.49-6 107h101s25-274 2-378z"/><path fill="#6083a6" d="M112.69 780.07c-3.93 14.18 18.25 24.38 22.03 32.15 1.71 4.19 21.52 115.81 22.86 120s-10.29 76.95-10.29 76.95l11.24 4.57s17.11-64.76 20.16-66.86-30.83-141.71-35.97-149.33z"/><path fill="#6089aa" d="m61.59 678.9-5.71 12.83c19.39 21.53 190.89 22.4 224.13 5.1L278.49 677 61.6 678.9Z"/><path fill="#4e3b4d" d="M275.41 1053.5H172.47c-1.82-9.1 9.9-87.04 6.36-104.53-15.92 33.27-23.18 101.36-23.43 103.53H62.57c-1.81-27.21 10.96-80.76 15.94-105.16.49-2.94-1.25-11.27-3.27-20.92-6.66-33.47-15.61-103.38-19.89-113.22-12.08-33.58-10.52-134.98 8.84-140.69l213.11 1c23.07 104.01-1.55 375.78-1.89 380Zm-100.88-2h99.06c1.55-17.46 23.87-275.76 2.11-376l-210.85-.99c-18.35 7.66-18.96 107.15-7.54 138.23 4.24 9.64 13.25 79.86 19.89 113.28 2.23 10.65 3.84 18.35 3.29 21.66-4.87 23.72-17.13 75.78-16.05 102.84h89.17c1.07-9.18 9.44-79.79 26.52-108.21.38 4.42 3.52 25.05-.64 50.39-3.58 19.66-4.76 52.6-4.95 58.82Z"/><path fill="#ffa890" d="M401 459s11-15 13-18 3-4 8-3c9.4 1.25 31.28 11.68 36 21 6.31 6.61-8.92 23.38-10 27z"/><path fill="#4e3b4d" d="m448.34 487.35-48.81-28.04.66-.9c.11-.15 11.01-15.02 12.97-17.96 2.19-3.28 3.62-4.51 9.03-3.43 11.31 2.37 42.01 14.35 37.75 30.3-1.31 3.61-10.96 18.98-11.61 20.03Zm-45.87-28.66 45.19 25.96c3.06-4.93 9.65-15.73 10.39-17.97 3.8-13.78-26.46-25.93-36.25-27.7-4.64-.93-5.23-.05-6.97 2.57-1.73 2.59-9.94 13.82-12.36 17.13Z"/><path fill="#ffa890" d="M268 397s9-10 11-9 18 13 23 19 13 10 8 16-15 14-15 14z"/><path fill="#4e3b4d" d="m294.78 438.46-28.04-41.55c4.11-4.64 10.48-11.04 12.71-9.81 2.06 1.03 18.18 13.08 23.32 19.25 4 5.17 13.85 10.16 8 17.28-5.73 6.74-14.72 13.76-15.99 14.82Zm-25.51-41.37 25.95 38.44c2.5-2.06 9.98-8.33 14.02-13.17 7.79-6.26-28.5-31.95-30.61-33.43-1.23.08-5.68 4.15-9.35 8.16Z"/><path fill="#fcd0b5" d="M293 143s5.12 57.07 4 66c-1 8 0 24 3 29 12.67 16.18 27.99 25 1 34 2.52 38.09-13.42 84.27-67 76l-2 38-69-10-21-182 77-80 55 7z"/><path fill="#4e3b4d" d="m232.94 386.15-70.85-10.27c-.05-.48-21.07-182.63-21.14-183.23.2-.21 77.42-80.43 77.68-80.7l55.88 7.11 19.46 22.53c.23 2.62 5.13 57.31 4.02 66.53-1.04 8.34.18 23.89 2.87 28.36 12.11 15.21 28.55 26.1 1.14 35.23 2.57 40.23-15.41 83.68-67.06 76.51zm-69.03-12.03 67.15 9.73 2-38.09c53.37 9.13 69.54-36.43 66.94-75.49 27.54-8.59 10.5-17.59-.86-32.76-3.23-5.38-4.13-21.69-3.13-29.64 1.05-8.38-3.57-60.85-3.98-65.47l-18.54-21.47-54.12-6.89-76.32 79.3 20.86 180.77Z"/><path fill="#ffa890" d="M57 653c-.86 4.32-4.56 24.86 0 27 33 18.67 168.02 20.25 203 8.99 9-1.99 24-2.99 23-11.99s-5-25-5-25z"/><path fill="#4e3b4d" d="M160 698c-49.5 0-96.74-14.42-103.37-17.07-5.03-2.05-2.27-19.7-.45-28.92.39 0 222.04-1.01 222.6-1.01l.19.76c.04.16 4.03 16.17 5.02 25.13 1.66 17.96-77.91 19.65-123.99 21.11M57.83 654c-2.55 13.62-2.75 24.16-.46 25.08 34.53 19.16 169.4 19.69 202.41 8.95 7.94-1.8 23.31-2.89 22.22-10.91-.86-7.72-3.99-20.83-4.79-24.11L57.82 654Z"/><path fill="#fdb49d" d="M287 137s-15 80-75 95v.83L131 174zM276 254c.08 13.03-34.08 13.03-34 0-.08-13.03 34.08-13.03 34 0"/><path fill="#f3af99" d="M206 316s12 26 62 27c-.31.14-18 10-34 4l-1 10-25-10z"/><path fill="#4e3b4d" d="m232.94 386.15-70.85-10.27c-.05-.48-21.07-182.63-21.14-183.23.2-.21 77.42-80.43 77.68-80.7l55.88 7.11 19.46 22.53c.23 2.62 5.13 57.31 4.02 66.53-1.04 8.34.18 23.89 2.87 28.36 12.11 15.21 28.55 26.1 1.14 35.23 2.57 40.23-15.41 83.68-67.06 76.51zm-69.03-12.03 67.15 9.73 2-38.09c53.37 9.13 69.54-36.43 66.94-75.49 27.54-8.59 10.5-17.59-.86-32.76-3.23-5.38-4.13-21.69-3.13-29.64 1.05-8.38-3.57-60.85-3.98-65.47l-18.54-21.47-54.12-6.89-76.32 79.3 20.86 180.77Z"/><path fill="#ffa890" d="M207.5 367.5c82.44-4.05 120.69 109.12 144 148 0 0 39-65 56-65s32 12 38 17c22.33 12.76-.97 49.86-8 67-28.09 64.81-90.73 140.52-153.25 49.49-.32-.55-.57-1.05-.75-1.49-6.41 3.31 20.45 78.62-7 85-14 5-80 19-141 10s-82-4-86-34 8-35 10-64-2-90-3-108 9-40 21-48 130-56 130-56"/><path fill="#f38e77" d="M239 510s7 71 46 102c0 0-3-27-2-29 0 0-41-64-44-73"/><path fill="#4e3b4d" d="M178.71 681.48c-23.85.63-52.96-4.65-75.52-7.12-36.35-4.24-51.39-6-54.69-30.73-3.97-30.77 8.22-36.01 9.99-64.2 7.23-45.53-20.72-128.41 18.44-156.76 12.29-8.02 125.41-54.32 130.57-56.17 79.86-3.43 116.72 98.26 144.06 146.95 26.05-35.69 45.16-91.07 94.56-46.72 6.46 5.38 12.37 9.4 9.34 23.98-21.8 75.25-95.54 203.28-171.76 94.34-.58 18.08 18.49 77.79-6.89 83.39-11.96 4.27-52.68 13.04-98.12 13.04Zm28.97-312.97c-5.44 2.21-118.07 48.12-129.63 55.83-11.9 7.94-21.51 29.95-20.56 47.11 1.46 27.77 4.94 78.63 3 108.12-.86 12.46-3.6 20.71-6.02 27.99-3.35 10.09-6.25 18.8-3.98 35.81 3.09 23.18 16.66 24.77 52.94 29 57.67 12.8 153.17 3.7 172.73-5.82 20.81-4.68 8.63-50.14 6.33-71.27-1.45-13.92-.62-14.16.25-14.41 1.29-.44 1.71 1.58 2.37 2.61 60.78 87.48 119.98 19.6 149.3-44.95 5.82-11.72 14.57-29.17 19.1-48.25 2.8-13.37-2.49-16.87-8.66-22.02-4.98-4.15-20.12-16.77-37.36-16.77-16.24 0-54.76 63.87-55.14 64.51l-.93 1.55c-24.58-40-59.77-151.5-143.75-149.06Z"/><path fill="#4e3b4d" d="M282.49 582.64c-.23-.27-23.6-27.66-45.4-76.23l1.82-.82c21.69 48.31 44.86 75.48 45.1 75.75z"/><path fill="#885949" d="M265.5 98.5c43.2 1.61 53.52 67.85 31.5 94.5 0 0-4.5-33.5-19.5-48.5 0 0-9 57-70 87 0 0-17-19-31 2s6 36 11 39 15 1 17 0c-5.21 18.7 34.67 105.82 18 132-5 14-21 51-58 62-67.9 17.54-140.37 5.18-139-74 2-37 24-61 27-76 13.58-41.19-9.6-89.55 0-142 15.14-95.63 143.64-127.43 213-76"/><path fill="#4e3b4d" d="M114.93 474.54C28.1 477.23 2.77 399.58 43.29 335.02c9.85-17.29 13.39-37.43 13.22-54.42-7.89-69.01-23.55-136.51 48.47-185.95 58.71-32.52 121.01-25.75 160.98 2.89 45.28 2.42 54.59 72.81 30.31 97.44-.34-1.84-3.89-31.88-18.15-48.38-8.04 31.79-27.86 64.6-70.84 86.13-15.05-17.95-37-2.67-34.15 19.9 6.84 19.44 20.13 23.97 32.58 18.15-.11 3.22-2.52 17.93 11.75 60.39 14.57 42.67 10.73 60.39 6 73.66-12.88 42.14-51.89 72.14-108.52 69.71Zm69.54-399.25C63.45 78.11 37 171.76 57.5 272.4c2.28 13.69.92 21.02-2.41 36.52-1.59 9.83-4.06 16.35-10.04 27.05-23.64 37.26-30.14 98.48 15.04 123.73 52.81 29.09 144.13 11.43 161.47-55.52 16.46-24.23-21.52-107.49-18.14-130.23-13.35 3.66-25.12-1.21-32.25-20.87-3.69-22.61 19.93-41.17 36.55-22.79 60.57-31.87 68.45-83.71 69.1-87.87 13.88 12.39 19.68 40.62 20.87 48.44 19.99-28.75 8.22-90.33-32.63-91.37-22.53-19.35-52.53-22.02-80.59-24.18Z"/><path fill="#4e3b4d" d="M285 228.5c.14 12.33-15.14 12.33-15 0-.14-12.33 15.14-12.33 15 0M261.16 210.95l-2.33-1.89c.14-.17 13.99-16.92 27.95-8.33l-1.57 2.55c-11.74-7.23-23.93 7.52-24.05 7.67"/><path fill="#9b4549" d="M270.93 288.99c1.25.14 6.91 2.01 21.03 1.01 1.92 16.1-13.06 29.02-26.97 13-1.86-2.79-4.44-8.16-4.14-15.33.86-2.98 6.55 1.29 10.07 1.32Z"/><path fill="#4e3b4d" d="M278.46 311.19c-13.77-1.94-17.93-9.45-18.6-23.56.02-1.46 1.64-2.53 3-2 10.03 3.09 12.55 4.24 30.04 3.3.96 3.22-.72 23.24-14.44 22.26M262.1 287.5c-2.32 24.66 30.16 31.24 28.9 3.57-17.66.57-18.47-.49-28.9-3.57"/><path fill="#feffff" d="M261.96 287.5s.04 3.96.04 4.84 15 3.66 23.39 3.52c7.39-.73 5.26-1.45 5.61-5.28 0 0-27.21-1.76-29.04-3.08"/><path fill="#f78d85" d="M263.95 300.1c7.46-1.16 15.3 2.03 21.05 8.07 0 0-8.61 2.69-12.44.9-3.7-1.96-12.35-9.92-8.61-8.97"/><path fill="#4e3b4d" d="M278.46 311.19c-13.77-1.94-17.93-9.45-18.6-23.56.02-1.46 1.64-2.53 3-2 10.03 3.09 12.55 4.24 30.04 3.3.96 3.22-.72 23.24-14.44 22.26M262.1 287.5c-2.32 24.66 30.16 31.24 28.9 3.57-17.66.57-18.47-.49-28.9-3.57"/><path fill="#f4ad98" d="M187 237s-4 0-1 5c2.57 4.29 9 4 10 7s1 4 2 5 4 2 3 0-.33-10.4-8-15c-5-3-6-2-6-2"/><path fill="#d29078" d="M200 255.09c-.19-10.23-7.44-18.89-14.8-17.12l-.42-1.96c8.12-2.2 17.12 7.45 17.21 18.88l-1.99.19Z"/><path fill="#4e3b4d" d="m148.5 1006.59-1.99-.18c.06-.71 6.68-71.12 21.55-113.74l1.43 1.39c-14.79 42.39-20.92 111.82-20.99 112.53"/><path fill="#4e3b4d" d="M178.56 945.94c-.27-1.31-27.35-131.98-36.2-147.8-2.95-1.32-24.89-11.32-29.68-18.07l1.6-1.15c5.06 6.87 28.79 17.36 29.45 17.67 9.08 14.95 35.18 140.56 36.38 146.12l-1.56 3.24Z"/><path fill="#4e3b4d" d="M127.09 790.41c-12.99-26.38-16.67-72.04-7.04-96.7l1.92.58c-9.69 24.72-5.54 70.03 6.96 95.3l-1.83.82ZM61.5 778.5c-.36 0-1.33 0-12.59-8.19l1.18-1.62c4.73 3.44 10.08 7.13 11.4 7.75 2.77-1.3 22.13-13.97 24.18-15.55.71-2.94 2.03-30.44 2.79-49.28-15.98 1.42-36.97-8.29-37.88-8.71l.85-1.81c.07.14 24.13 10.91 39.12 8.27-1.87 48.04-3.06 53.84-3.34 52.84-.16.16-23.97 16.29-25.71 16.29ZM183.5 790.5c-3.57 0-31.86-18.48-32.89-20.55-1.7-4.84-5.16-57.97-2.81-54.15l.31-.32c1.79-.15 58.76 3.51 68.34-.35l.05 1.33c2.02 51.44 1.1 52.35.71 52.75-.21.21-30.05 21.29-33.71 21.29m-34.33-72.96c-1.11 5.58 2.04 48.34 3.24 51.55 1.75 2.5 28.52 19.25 31.1 19.41 2.73-.24 29.35-18.35 32.12-20.57.51-3.13-.34-31.01-1.08-50.15-11.47 2.35-58.67.1-65.38-.24M258.5 1059.57l-2-.13c5.68 6.67 10.97-378.07-.49-369.29l1.98-.29c.12.8 11.48 80.81 8.51 186.67-2.97 105.79-7.95 182.28-8 183.04"/><path fill="#4e3b4d" d="m261.5 736.87-.99-1.74c13.51-7.72 20.49-26.29 20.56-26.48l1.88.69c-.29.79-7.29 19.43-21.44 27.52Z"/><rect width="103.62" height="197.08" x="354.68" y="219.77" fill="#89cfb7" rx="14.98" ry="14.98"/><path fill="#4e3b4d" d="M443.32 417.85h-73.65c-8.81 0-15.98-7.17-15.98-15.98V234.76c0-8.81 7.17-15.98 15.98-15.98h73.65c8.81 0 15.98 7.17 15.98 15.98v167.11c0 8.81-7.17 15.98-15.98 15.98m-73.65-197.08c-7.71 0-13.98 6.27-13.98 13.98v167.11c0 7.71 6.27 13.98 13.98 13.98h73.65c7.71 0 13.98-6.27 13.98-13.98V234.75c0-7.71-6.27-13.98-13.98-13.98z"/><rect width="103.62" height="197.08" x="347.32" y="219.77" fill="#a0e4c8" rx="14.98" ry="14.98"/><path fill="#4e3b4d" d="M435.95 417.85H362.3c-8.81 0-15.98-7.17-15.98-15.98V234.76c0-8.81 7.17-15.98 15.98-15.98h73.65c8.81 0 15.98 7.17 15.98 15.98v167.11c0 8.81-7.17 15.98-15.98 15.98M362.3 220.77c-7.71 0-13.98 6.27-13.98 13.98v167.11c0 7.71 6.27 13.98 13.98 13.98h73.65c7.71 0 13.98-6.27 13.98-13.98V234.75c0-7.71-6.27-13.98-13.98-13.98z"/><path fill="#e3fdf2" d="M435.57 227.14h-18.29c.3 3.07-.17 7.43-4.19 7.36h-27.43c-4.01.06-4.51-4.3-4.19-7.37-6.55 1.12-26.54-4.14-26.29 7.49v167.87c0 4.14 3.35 7.49 7.49 7.49h72.89c4.14 0 7.49-3.35 7.49-7.49V234.62c0-4.14-3.35-7.49-7.49-7.49Z"/><path fill="#4e3b4d" d="M435.57 410.99h-72.89c-4.68 0-8.49-3.81-8.49-8.49V234.63c-.23-12.82 20.88-7.44 28.29-8.49.03 2.54-.69 7.43 3.19 7.37h27.43c3.86.07 3.19-4.83 3.19-7.37 7.45 1.05 27.93-4.28 27.78 8.49V402.5c0 4.68-3.81 8.49-8.49 8.49Zm-72.89-182.85c-3.58 0-6.49 2.91-6.49 6.49V402.5c0 3.58 2.91 6.49 6.49 6.49h72.89c3.58 0 6.49-2.91 6.49-6.49V234.63c.27-10.2-18.06-5.49-23.78-6.49.49 3.48-1.2 7.41-5.19 7.37h-27.43c-3.97.05-5.7-3.89-5.19-7.37z"/><path fill="#e3fdf2" d="M389.84 226.98h15.75"/><path fill="#4e3b4d" d="M389.84 225.98h15.75v2h-15.75zM409.05 225.85h1.9v2h-1.9z"/><g opacity=".34"><rect width="73.65" height="92.44" x="362.08" y="253.29" fill="#e3fdf2" rx="13.33" ry="13.33"/><path fill="#4e3b4d" d="M422.4 346.74h-46.98c-7.9 0-14.33-6.43-14.33-14.33v-65.78c0-7.9 6.43-14.33 14.33-14.33h46.98c7.9 0 14.33 6.43 14.33 14.33v65.78c0 7.9-6.43 14.33-14.33 14.33m-46.99-92.45c-6.8 0-12.33 5.53-12.33 12.33v65.78c0 6.8 5.53 12.33 12.33 12.33h46.98c6.8 0 12.33-5.53 12.33-12.33v-65.78c0-6.8-5.53-12.33-12.33-12.33z"/></g><path fill="#a8d4ed" d="M371.19 268.12h16.66v61.21h-16.66z"/><path fill="#4e3b4d" d="M388.35 329.83h-17.66v-62.21h17.66zm-16.66-1h15.66v-60.21h-15.66z"/><path fill="#fde68a" d="M387.9 268.12h16.66v61.21H387.9z"/><path fill="#4e3b4d" d="M405.06 329.83H387.4v-62.21h17.66zm-16.66-1h15.66v-60.21H388.4z"/><path fill="#fabacf" d="m404.86 269.35 16.541-1.98 7.27 60.778-16.543 1.978z"/><path fill="#4e3b4d" d="m411.74 330.65-7.45-61.76 17.53-2.1 7.45 61.76zm-6.33-60.89 7.21 59.78 15.55-1.86-7.21-59.78z"/><path fill="#79abd1" d="M373.25 271.48h12.51v3.17h-12.51zM373.25 276.18h12.51v3.17h-12.51z"/><path fill="#ecbb5c" d="M389.95 271.48h12.51v3.17h-12.51zM389.95 276.18h12.51v3.17h-12.51z"/><path fill="#e992a5" d="m407.312 272.453 12.416-1.527.387 3.146L407.7 275.6zM407.878 277.118l12.416-1.526.387 3.146-12.416 1.527z"/><path fill="#77b9ad" d="M419.95 393.58h-44c-16.3.24-16.3-29.38 0-29.14h44c6.57 0 11.9 5.33 11.9 11.9 1.13 8.06-2.55 17.36-11.9 17.24"/><path fill="#fde68a" d="m389.55 375.98-6.27 4.02 1.86 7.58-5.74-5.09-6.27 4.02 2.72-7.16-5.73-5.09 7.42.66 2.73-7.17 1.86 7.57zM407.24 372.09l-3.28 6.69 5.51 5.51-7.54-1.38-3.29 6.69-1.38-7.54-7.54-1.38 6.69-3.28-1.38-7.54 5.52 5.51z"/><path fill="#fccfb5" d="M422.2 437.11c1.73-4.84 6.13-14.27 8.61-18.79l22.78-28.44 13.29-9.4 10.79 8.76-27.56 44.95-14.96 5.91-12.94-3ZM316.43 354.32c.21.21 25.11-13.75 29.52-16.76 3.02-2.06 8-4 11.62.38s-2.44 9.46-5.27 12.44c-2.53 2.67-9.59 10.03-11.49 11.94-9.14 5.21-10.18 27.18-24 31.24"/><path fill="#4e3b4d" d="m316.98 394.54-.33-1.97c12.03-2.72 13.86-24.6 23.46-30.96 2.71-4.07 21.53-18.23 16.7-23.04-3.32-4.02-7.87-1.84-10.28-.19-2.31 1.58-9.99 6.01-16.41 9.63q-13.67 7.72-14.38 7.01l.71-.71-.27-.96c1.41-.52 24.88-13.66 29.23-16.63 5-3.42 9.84-3.2 12.95.57 4.09 5.18-2.1 10.38-5.31 13.77-3.53 3.61-10.01 10.71-13.07 13.37-8.25 7.17-10.56 27.84-22.98 30.11Z"/><path fill="#fccfb5" d="M332.97 332.57s-8.29 7.71-10.38 12"/><path fill="#4e3b4d" d="m323.49 345.01-1.8-.88c2.15-4.4 10.25-11.97 10.6-12.29l1.36 1.46c-.08.08-8.17 7.64-10.16 11.71"/><path fill="#fccfb5" d="M421.25 437.3s3.08-5.94 3.21-6.44-5.59-9.14-4.57-17.78c6-26.66-6.39-32.14-2.16-47.62 3.43-5.97 8.26-3.43 10.03-1.52 1.96 2.1 10.16 19.05 11.81 22.35s3 11.03 10.21 7.9c9.21-4 24.86-8.24 11.1-16.76"/><path fill="#4e3b4d" d="m421.48 438.25-2.48-.67c2.76-4.49 2.87-5.1 3.77-6.72-7.75-15.13-1.15-25.28-2.78-39.8-2.15-9.32-10.15-26.93 2.16-30.29 9.41.65 9.5 10.1 17.09 22.96 1.91 3.35 3.25 8.57 6.99 9.85 7.44-.05 12.89-16 12.86-17.08l1.98.25c-.26 2.04-3.54 11.9-10.01 17.16-7.04 5.76-11.2-4.05-13.62-9.3-2.47-5-9.02-18.3-10.6-20-2.09-2.48-6.65-2.68-8.43 1.34-3.02 5.6 1.95 17.79 3.54 24.69 1.76 9.75-4.57 29.76 2.64 38.43 1.26 3.42 1.22.23-3.11 9.17Z"/></svg>